<?xml version="1.0" encoding="UTF-8"?>
<!DOCTYPE svg PUBLIC "-//W3C//DTD SVG 1.1//EN" "http://www.w3.org/Graphics/SVG/1.1/DTD/svg11.dtd">
<svg xmlns="http://www.w3.org/2000/svg" version="1.1" width="278px" height="291px" style="shape-rendering:geometricPrecision; text-rendering:geometricPrecision; image-rendering:optimizeQuality; fill-rule:evenodd; clip-rule:evenodd" xmlns:xlink="http://www.w3.org/1999/xlink">
<g><path style="opacity:0.004" fill="#fefffe" d="M 16.5,1.5 C 17.8333,2.16667 17.8333,2.16667 16.5,1.5 Z"/></g>
<g><path style="opacity:0.004" fill="#fefffe" d="M 222.5,3.5 C 223.833,4.16667 223.833,4.16667 222.5,3.5 Z"/></g>
<g><path style="opacity:0.004" fill="#fefffe" d="M 147.5,6.5 C 148.833,7.16667 148.833,7.16667 147.5,6.5 Z"/></g>
<g><path style="opacity:0.004" fill="#fefffe" d="M 207.5,9.5 C 208.833,10.1667 208.833,10.1667 207.5,9.5 Z"/></g>
<g><path style="opacity:0.004" fill="#fefffe" d="M 183.5,18.5 C 184.833,19.1667 184.833,19.1667 183.5,18.5 Z"/></g>
<g><path style="opacity:0.004" fill="#fefffe" d="M 91.5,25.5 C 92.8333,26.1667 92.8333,26.1667 91.5,25.5 Z"/></g>
<g><path style="opacity:0.004" fill="#fefffe" d="M 229.5,31.5 C 230.833,32.1667 230.833,32.1667 229.5,31.5 Z"/></g>
<g><path style="opacity:0.004" fill="#fefffe" d="M 206.5,35.5 C 207.833,36.1667 207.833,36.1667 206.5,35.5 Z"/></g>
<g><path style="opacity:0.075" fill="#dff3db" d="M 149.5,37.5 C 131.321,36.1925 113.655,38.5258 96.5,44.5C 104.277,40.5221 112.61,38.0221 121.5,37C 131.009,36.1757 140.343,36.3424 149.5,37.5 Z"/></g>
<g><path style="opacity:0.992" fill="#9ebc95" d="M 155.5,34.5 C 160.536,34.3022 165.203,35.3022 169.5,37.5C 167.409,37.6816 165.409,37.3482 163.5,36.5C 162.081,37.0047 161.415,38.0047 161.5,39.5C 157.64,39.1916 153.974,38.5249 150.5,37.5C 153.397,37.8747 156.063,37.3747 158.5,36C 157.263,35.7679 156.263,35.2679 155.5,34.5 Z"/></g>
<g><path style="opacity:0.396" fill="#c8dec2" d="M 169.5,37.5 C 172.916,37.5275 175.916,38.5275 178.5,40.5C 175.215,40.0719 172.215,39.0719 169.5,37.5 Z"/></g>
<g><path style="opacity:1" fill="#719869" d="M 155.5,34.5 C 156.263,35.2679 157.263,35.7679 158.5,36C 156.063,37.3747 153.397,37.8747 150.5,37.5C 150.167,37.5 149.833,37.5 149.5,37.5C 140.343,36.3424 131.009,36.1757 121.5,37C 112.61,38.0221 104.277,40.5221 96.5,44.5C 96.1583,45.3382 95.4916,45.6716 94.5,45.5C 89.9136,46.4598 85.9136,48.4598 82.5,51.5C 79.7089,53.7349 76.7089,55.7349 73.5,57.5C 72.1266,57.6567 70.7932,57.49 69.5,57C 70.7101,55.9609 71.7101,54.7942 72.5,53.5C 91.4157,39.3787 112.916,32.3787 137,32.5C 143.406,32.3262 149.573,32.9929 155.5,34.5 Z"/></g>
<g><path style="opacity:0.004" fill="#fefffe" d="M 136.5,40.5 C 137.833,41.1667 137.833,41.1667 136.5,40.5 Z"/></g>
<g><path style="opacity:0.039" fill="#daf1d3" d="M 161.5,39.5 C 164.553,39.1107 167.22,39.7773 169.5,41.5C 166.627,41.1977 163.961,40.531 161.5,39.5 Z"/></g>
<g><path style="opacity:1" fill="#54814b" d="M 169.5,37.5 C 172.215,39.0719 175.215,40.0719 178.5,40.5C 178.38,41.5862 177.713,42.2528 176.5,42.5C 174.218,41.7766 171.884,41.4433 169.5,41.5C 167.22,39.7773 164.553,39.1107 161.5,39.5C 161.415,38.0047 162.081,37.0047 163.5,36.5C 165.409,37.3482 167.409,37.6816 169.5,37.5 Z"/></g>
<g><path style="opacity:1" fill="#9cba96" d="M 178.5,40.5 C 181.912,41.0421 184.912,42.3754 187.5,44.5C 186.504,44.4142 185.671,44.7476 185,45.5C 184.275,43.842 183.108,43.342 181.5,44C 182.71,45.0391 183.71,46.2058 184.5,47.5C 179.424,45.4796 174.424,43.4796 169.5,41.5C 171.884,41.4433 174.218,41.7766 176.5,42.5C 177.713,42.2528 178.38,41.5862 178.5,40.5 Z"/></g>
<g><path style="opacity:0.004" fill="#fefffe" d="M 245.5,41.5 C 246.833,42.1667 246.833,42.1667 245.5,41.5 Z"/></g>
<g><path style="opacity:0.075" fill="#e2f0de" d="M 94.5,45.5 C 90.8178,48.0078 86.8178,50.0078 82.5,51.5C 85.9136,48.4598 89.9136,46.4598 94.5,45.5 Z"/></g>
<g><path style="opacity:0.004" fill="#fefffe" d="M 143.5,47.5 C 144.833,48.1667 144.833,48.1667 143.5,47.5 Z"/></g>
<g><path style="opacity:0.098" fill="#e1f2db" d="M 184.5,47.5 C 187.089,47.461 189.089,48.461 190.5,50.5C 188.181,50.0075 186.181,49.0075 184.5,47.5 Z"/></g>
<g><path style="opacity:0.004" fill="#fefffe" d="M 102.5,48.5 C 103.833,49.1667 103.833,49.1667 102.5,48.5 Z"/></g>
<g><path style="opacity:1" fill="#7a9e71" d="M 187.5,44.5 C 195.302,47.5661 202.302,51.8994 208.5,57.5C 210.239,60.2427 212.573,62.2427 215.5,63.5C 216.5,63.8333 217.167,64.5 217.5,65.5C 220.463,69.7977 223.797,73.7977 227.5,77.5C 233.952,84.0692 238.619,91.7358 241.5,100.5C 241.963,103.221 242.629,105.888 243.5,108.5C 242.903,108.735 242.57,109.235 242.5,110C 244.27,115.032 245.27,120.198 245.5,125.5C 241.238,108.374 233.905,92.7076 223.5,78.5C 223.573,76.9731 222.906,75.9731 221.5,75.5C 220.5,75.1667 219.833,74.5 219.5,73.5C 216.833,68.8333 213.167,65.1667 208.5,62.5C 202.767,58.1003 196.767,54.1003 190.5,50.5C 189.089,48.461 187.089,47.461 184.5,47.5C 183.71,46.2058 182.71,45.0391 181.5,44C 183.108,43.342 184.275,43.842 185,45.5C 185.671,44.7476 186.504,44.4142 187.5,44.5 Z"/></g>
<g><path style="opacity:0.004" fill="#fefffe" d="M 18.5,57.5 C 19.8333,58.1667 19.8333,58.1667 18.5,57.5 Z"/></g>
<g><path style="opacity:0.004" fill="#dfecdc" d="M 208.5,57.5 C 211.427,58.7573 213.761,60.7573 215.5,63.5C 212.573,62.2427 210.239,60.2427 208.5,57.5 Z"/></g>
<g><path style="opacity:0.757" fill="#b3c9a8" d="M 150.5,64.5 C 146.5,63.1667 142.5,63.1667 138.5,64.5C 138.611,63.8826 138.944,63.3826 139.5,63C 142.833,62.3333 146.167,62.3333 149.5,63C 150.056,63.3826 150.389,63.8826 150.5,64.5 Z"/></g>
<g><path style="opacity:0.847" fill="#b3d2ab" d="M 208.5,62.5 C 213.167,65.1667 216.833,68.8333 219.5,73.5C 215.5,70.1667 211.833,66.5 208.5,62.5 Z"/></g>
<g><path style="opacity:0.325" fill="#d0e0c9" d="M 150.5,64.5 C 153.394,65.876 156.394,67.0426 159.5,68C 157.75,69.3186 155.75,69.8186 153.5,69.5C 153.784,71.4147 153.451,73.0813 152.5,74.5C 152.5,72.8333 152.5,71.1667 152.5,69.5C 151.833,67.8333 151.167,66.1667 150.5,64.5 Z"/></g>
<g><path style="opacity:1" fill="#478339" d="M 150.5,64.5 C 151.167,66.1667 151.833,67.8333 152.5,69.5C 147.009,69.2481 141.675,69.9147 136.5,71.5C 136.4,68.8915 137.067,66.5582 138.5,64.5C 142.5,63.1667 146.5,63.1667 150.5,64.5 Z"/></g>
<g><path style="opacity:0.576" fill="#b1d0ac" d="M 58.5,64.5 C 56.5698,68.1002 53.9031,71.1002 50.5,73.5C 52.4302,69.8998 55.0969,66.8998 58.5,64.5 Z"/></g>
<g><path style="opacity:0.722" fill="#b1cbaa" d="M 138.5,64.5 C 137.067,66.5582 136.4,68.8915 136.5,71.5C 136.629,73.2161 136.962,74.8828 137.5,76.5C 133.305,72.1893 133.638,68.1893 138.5,64.5 Z"/></g>
<g><path style="opacity:0.004" fill="#fefffe" d="M 73.5,70.5 C 74.8333,71.1667 74.8333,71.1667 73.5,70.5 Z"/></g>
<g><path style="opacity:0.271" fill="#d4e7d1" d="M 217.5,65.5 C 221.957,68.6187 225.291,72.6187 227.5,77.5C 223.797,73.7977 220.463,69.7977 217.5,65.5 Z"/></g>
<g><path style="opacity:0.004" fill="#fefffe" d="M 175.5,73.5 C 176.833,74.1667 176.833,74.1667 175.5,73.5 Z"/></g>
<g><path style="opacity:1" fill="#6ab04a" d="M 152.5,69.5 C 152.5,71.1667 152.5,72.8333 152.5,74.5C 151.292,75.2341 149.959,75.5674 148.5,75.5C 148.5,76.5 148.5,77.5 148.5,78.5C 144.633,78.7583 140.966,78.0916 137.5,76.5C 136.962,74.8828 136.629,73.2161 136.5,71.5C 141.675,69.9147 147.009,69.2481 152.5,69.5 Z"/></g>
<g><path style="opacity:0.004" fill="#fefffe" d="M 169.5,76.5 C 170.833,77.1667 170.833,77.1667 169.5,76.5 Z"/></g>
<g><path style="opacity:0.012" fill="#e3f0e1" d="M 221.5,75.5 C 222.906,75.9731 223.573,76.9731 223.5,78.5C 222.094,78.0269 221.427,77.0269 221.5,75.5 Z"/></g>
<g><path style="opacity:0.004" fill="#fefffe" d="M 229.5,76.5 C 230.833,77.1667 230.833,77.1667 229.5,76.5 Z"/></g>
<g><path style="opacity:0.004" fill="#fefffe" d="M 167.5,77.5 C 168.833,78.1667 168.833,78.1667 167.5,77.5 Z"/></g>
<g><path style="opacity:0.004" fill="#fefffe" d="M 179.5,77.5 C 180.833,78.1667 180.833,78.1667 179.5,77.5 Z"/></g>
<g><path style="opacity:0.98" fill="#add39a" d="M 152.5,74.5 C 150.234,79.7965 146.234,81.6298 140.5,80C 139.29,78.9609 138.29,77.7942 137.5,76.5C 140.966,78.0916 144.633,78.7583 148.5,78.5C 148.5,77.5 148.5,76.5 148.5,75.5C 149.959,75.5674 151.292,75.2341 152.5,74.5 Z"/></g>
<g><path style="opacity:0.004" fill="#fefffe" d="M 91.5,79.5 C 92.8333,80.1667 92.8333,80.1667 91.5,79.5 Z"/></g>
<g><path style="opacity:1" fill="#84a67e" d="M 72.5,53.5 C 71.7101,54.7942 70.7101,55.9609 69.5,57C 70.7932,57.49 72.1266,57.6567 73.5,57.5C 66.9164,62.5496 60.4164,68.5496 54,75.5C 48.3148,82.8871 43.1481,90.5537 38.5,98.5C 38.6309,97.6236 38.2975,96.9569 37.5,96.5C 36.3331,98.0792 34.9998,99.4125 33.5,100.5C 37.4069,90.3442 43.0735,81.3442 50.5,73.5C 53.9031,71.1002 56.5698,68.1002 58.5,64.5C 62.432,59.871 67.0986,56.2044 72.5,53.5 Z"/></g>
<g><path style="opacity:1" fill="#eff3f3" d="M 161.5,97.5 C 160.964,100.698 161.631,103.365 163.5,105.5C 163.833,105.5 164.167,105.5 164.5,105.5C 164.5,106.5 164.5,107.5 164.5,108.5C 163.466,107.313 162.133,106.48 160.5,106C 153.597,107.068 148.097,104.901 144,99.5C 141.977,101.769 141.144,104.436 141.5,107.5C 137.146,105.652 132.48,104.985 127.5,105.5C 127.5,107.833 127.5,110.167 127.5,112.5C 126.156,102.532 128.322,93.1983 134,84.5C 136.995,81.7352 140.495,80.9019 144.5,82C 148.12,86.0699 151.12,90.5699 153.5,95.5C 155.851,97.2289 158.518,97.8956 161.5,97.5 Z"/></g>
<g><path style="opacity:0.004" fill="#fefffe" d="M 180.5,87.5 C 181.833,88.1667 181.833,88.1667 180.5,87.5 Z"/></g>
<g><path style="opacity:0.004" fill="#fefffe" d="M 162.5,90.5 C 163.833,91.1667 163.833,91.1667 162.5,90.5 Z"/></g>
<g><path style="opacity:0.004" fill="#fefffe" d="M 18.5,96.5 C 19.8333,97.1667 19.8333,97.1667 18.5,96.5 Z"/></g>
<g><path style="opacity:0.004" fill="#fefffe" d="M 205.5,97.5 C 206.833,98.1667 206.833,98.1667 205.5,97.5 Z"/></g>
<g><path style="opacity:0.004" fill="#fefffe" d="M 250.5,97.5 C 251.833,98.1667 251.833,98.1667 250.5,97.5 Z"/></g>
<g><path style="opacity:0.039" fill="#d6e8d3" d="M 173.5,108.5 C 173.167,107.167 172.833,107.167 172.5,108.5C 171.249,107.528 171.582,106.861 173.5,106.5C 174.554,106.68 175.554,107.013 176.5,107.5C 177.491,103.555 177.824,99.5546 177.5,95.5C 173.167,95.5 168.833,95.5 164.5,95.5C 168.897,93.2136 173.564,92.8803 178.5,94.5C 178.5,99.1667 178.5,103.833 178.5,108.5C 176.833,108.5 175.167,108.5 173.5,108.5 Z"/></g>
<g><path style="opacity:0.161" fill="#d1e9cd" d="M 38.5,98.5 C 38.2927,101.241 37.2927,103.574 35.5,105.5C 35.7073,102.759 36.7073,100.426 38.5,98.5 Z"/></g>
<g><path style="opacity:1" fill="#528747" d="M 164.5,95.5 C 168.833,95.5 173.167,95.5 177.5,95.5C 177.824,99.5546 177.491,103.555 176.5,107.5C 175.554,107.013 174.554,106.68 173.5,106.5C 171.582,106.861 171.249,107.528 172.5,108.5C 172.833,108.5 173.167,108.5 173.5,108.5C 173.833,109.833 174.167,111.167 174.5,112.5C 174.166,115.491 175.166,117.824 177.5,119.5C 179.25,120.659 180.25,122.326 180.5,124.5C 175.219,132.448 169.552,140.115 163.5,147.5C 153.249,148.475 142.915,148.808 132.5,148.5C 131.936,143.181 130.936,137.847 129.5,132.5C 128.569,130.978 127.402,129.645 126,128.5C 121.168,127.91 116.335,127.243 111.5,126.5C 119.833,125.167 128.167,125.167 136.5,126.5C 135.557,131.1 135.223,135.767 135.5,140.5C 136.959,140.433 138.292,140.766 139.5,141.5C 146.175,141.666 152.842,141.5 159.5,141C 160.71,139.961 161.71,138.794 162.5,137.5C 165.435,133.575 167.435,129.242 168.5,124.5C 167.369,119.109 166.036,113.776 164.5,108.5C 164.5,107.5 164.5,106.5 164.5,105.5C 167.244,104.928 168.077,103.262 167,100.5C 165.644,99.6198 164.144,99.2865 162.5,99.5C 162.517,101.565 162.85,103.565 163.5,105.5C 161.631,103.365 160.964,100.698 161.5,97.5C 161.973,96.0937 162.973,95.427 164.5,95.5 Z"/></g>
<g><path style="opacity:1" fill="#52834a" d="M 38.5,98.5 C 36.7073,100.426 35.7073,102.759 35.5,105.5C 33.744,104.448 33.0773,102.781 33.5,100.5C 34.9998,99.4125 36.3331,98.0792 37.5,96.5C 38.2975,96.9569 38.6309,97.6236 38.5,98.5 Z"/></g>
<g><path style="opacity:0.517" fill="#bad4ac" d="M 60.5,101.5 C 69.0041,101.033 77.3374,101.533 85.5,103C 81.1744,104.14 76.6744,104.64 72,104.5C 67.8333,104.167 63.6667,103.833 59.5,103.5C 59.8627,102.817 60.1961,102.15 60.5,101.5 Z"/></g>
<g><path style="opacity:1" fill="#67b242" d="M 164.5,105.5 C 164.167,105.5 163.833,105.5 163.5,105.5C 162.85,103.565 162.517,101.565 162.5,99.5C 164.144,99.2865 165.644,99.6198 167,100.5C 168.077,103.262 167.244,104.928 164.5,105.5 Z"/></g>
<g><path style="opacity:1" fill="#92b08c" d="M 33.5,100.5 C 33.0773,102.781 33.744,104.448 35.5,105.5C 35.405,107.786 34.7384,109.786 33.5,111.5C 33.6602,109.801 33.4935,108.134 33,106.5C 31.5814,108.993 30.0814,111.326 28.5,113.5C 29.3697,108.777 31.0363,104.444 33.5,100.5 Z"/></g>
<g><path style="opacity:0.004" fill="#fefffe" d="M 220.5,106.5 C 221.833,107.167 221.833,107.167 220.5,106.5 Z"/></g>
<g><path style="opacity:0.396" fill="#d0e7ce" d="M 241.5,100.5 C 244,103.66 245.333,107.327 245.5,111.5C 244.833,110.5 244.167,109.5 243.5,108.5C 242.629,105.888 241.963,103.221 241.5,100.5 Z"/></g>
<g><path style="opacity:0.031" fill="#d1e9ca" d="M 141.5,107.5 C 144.252,108.512 146.919,109.512 149.5,110.5C 146.083,110.977 143.416,109.977 141.5,107.5 Z"/></g>
<g><path style="opacity:0.004" fill="#fefffe" d="M 189.5,108.5 C 190.833,109.167 190.833,109.167 189.5,108.5 Z"/></g>
<g><path style="opacity:0.272" fill="#c3e0b4" d="M 50.5,108.5 C 62.5,108.5 74.5,108.5 86.5,108.5C 86.5,109.5 86.5,110.5 86.5,111.5C 74.4954,111.667 62.4954,111.5 50.5,111C 49.4019,110.23 49.4019,109.397 50.5,108.5 Z"/></g>
<g><path style="opacity:1" fill="#4a813f" d="M 141.5,107.5 C 143.416,109.977 146.083,110.977 149.5,110.5C 152.657,111.997 155.823,113.664 159,115.5C 159.498,118.817 159.665,122.15 159.5,125.5C 159.768,127.099 159.434,128.432 158.5,129.5C 157.566,130.568 157.232,131.901 157.5,133.5C 154.833,133.5 152.167,133.5 149.5,133.5C 149.5,132.833 149.5,132.167 149.5,131.5C 150.643,128.024 150.81,124.358 150,120.5C 149.617,119.944 149.117,119.611 148.5,119.5C 147.833,119.5 147.5,119.167 147.5,118.5C 147.082,117.778 146.416,117.278 145.5,117C 140.167,116.667 134.833,116.333 129.5,116C 128.934,115.005 128.267,114.172 127.5,113.5C 127.5,113.167 127.5,112.833 127.5,112.5C 127.5,110.167 127.5,107.833 127.5,105.5C 132.48,104.985 137.146,105.652 141.5,107.5 Z"/></g>
<g><path style="opacity:1" fill="#76ae59" d="M 89.5,87.5 C 99.5,87.5 109.5,87.5 119.5,87.5C 119.5,97.1667 119.5,106.833 119.5,116.5C 109.5,116.5 99.5,116.5 89.5,116.5C 89.5,106.833 89.5,97.1667 89.5,87.5 Z"/></g>
<g><path style="opacity:1" fill="#68b443" d="M 90.5,88.5 C 99.8333,88.5 109.167,88.5 118.5,88.5C 118.5,97.5 118.5,106.5 118.5,115.5C 109.167,115.5 99.8333,115.5 90.5,115.5C 90.5,106.5 90.5,97.5 90.5,88.5 Z"/></g>
<g><path style="opacity:0.937" fill="#abc3a7" d="M 174.5,112.5 C 176.293,114.426 177.293,116.759 177.5,119.5C 175.166,117.824 174.166,115.491 174.5,112.5 Z"/></g>
<g><path style="opacity:0.68" fill="#bce1ab" d="M 89.5,87.5 C 89.5,97.1667 89.5,106.833 89.5,116.5C 99.5,116.5 109.5,116.5 119.5,116.5C 111.35,117.493 103.017,117.826 94.5,117.5C 92.5,117.5 90.5,117.5 88.5,117.5C 88.1726,107.319 88.506,97.3194 89.5,87.5 Z"/></g>
<g><path style="opacity:0.62" fill="#b9ceb5" d="M 149.5,110.5 C 160.208,110.956 163.542,115.956 159.5,125.5C 159.665,122.15 159.498,118.817 159,115.5C 155.823,113.664 152.657,111.997 149.5,110.5 Z"/></g>
<g><path style="opacity:1" fill="#ecf4ee" d="M 119.5,87.5 C 120.494,96.6517 120.827,105.985 120.5,115.5C 122.467,115.261 124.301,115.594 126,116.5C 127.039,115.756 127.539,114.756 127.5,113.5C 128.267,114.172 128.934,115.005 129.5,116C 134.833,116.333 140.167,116.667 145.5,117C 146.416,117.278 147.082,117.778 147.5,118.5C 144.221,119.031 142.887,121.031 143.5,124.5C 142.178,124.33 141.011,124.663 140,125.5C 138.241,128.608 137.408,131.941 137.5,135.5C 136.115,132.148 136.449,128.815 138.5,125.5C 128.594,123.904 118.927,124.238 109.5,126.5C 108.01,124.72 106.01,124.054 103.5,124.5C 103.5,122.5 103.5,120.5 103.5,118.5C 100.287,118.81 97.2869,118.477 94.5,117.5C 103.017,117.826 111.35,117.493 119.5,116.5C 119.5,106.833 119.5,97.1667 119.5,87.5 Z"/></g>
<g><path style="opacity:1" fill="#5d8955" d="M 243.5,108.5 C 244.167,109.5 244.833,110.5 245.5,111.5C 245.99,116.506 247.324,121.172 249.5,125.5C 250.48,139.335 250.814,153.001 250.5,166.5C 250.5,167.167 250.167,167.5 249.5,167.5C 247.837,169.438 247.171,171.772 247.5,174.5C 246.462,177.429 245.296,180.429 244,183.5C 243.503,179.476 243.669,175.476 244.5,171.5C 244.851,167.316 245.518,163.316 246.5,159.5C 247.166,155.012 247.499,150.346 247.5,145.5C 247.692,138.596 247.025,131.93 245.5,125.5C 245.27,120.198 244.27,115.032 242.5,110C 242.57,109.235 242.903,108.735 243.5,108.5 Z"/></g>
<g><path style="opacity:0.122" fill="#daecd6" d="M 245.5,111.5 C 246.117,111.611 246.617,111.944 247,112.5C 248.157,116.782 248.99,121.116 249.5,125.5C 247.324,121.172 245.99,116.506 245.5,111.5 Z"/></g>
<g><path style="opacity:0.478" fill="#beddbb" d="M 28.5,114.5 C 28.0743,118.427 27.0743,122.093 25.5,125.5C 25.5165,121.466 26.5165,117.799 28.5,114.5 Z"/></g>
<g><path style="opacity:0.004" fill="#fefffe" d="M 260.5,122.5 C 261.833,123.167 261.833,123.167 260.5,122.5 Z"/></g>
<g><path style="opacity:0.004" fill="#fefffe" d="M 74.5,125.5 C 73.8333,124.167 73.8333,124.167 74.5,125.5 Z"/></g>
<g><path style="opacity:0.063" fill="#daf6d7" d="M 148.5,119.5 C 149.117,119.611 149.617,119.944 150,120.5C 150.81,124.358 150.643,128.024 149.5,131.5C 149.693,127.434 149.36,123.434 148.5,119.5 Z"/></g>
<g><path style="opacity:0.471" fill="#bfdcb0" d="M 100.5,125.5 C 99.7375,126.268 98.7375,126.768 97.5,127C 90.1742,127.5 82.8409,127.666 75.5,127.5C 74.6618,127.158 74.3284,126.492 74.5,125.5C 83.265,124.185 91.9317,124.185 100.5,125.5 Z"/></g>
<g><path style="opacity:1" fill="#577f51" d="M 137.5,135.5 C 137.5,135.833 137.5,136.167 137.5,136.5C 137.427,138.027 138.094,139.027 139.5,139.5C 139.5,140.167 139.5,140.833 139.5,141.5C 138.292,140.766 136.959,140.433 135.5,140.5C 135.223,135.767 135.557,131.1 136.5,126.5C 128.167,125.167 119.833,125.167 111.5,126.5C 116.335,127.243 121.168,127.91 126,128.5C 127.402,129.645 128.569,130.978 129.5,132.5C 127.405,131.588 125.405,130.421 123.5,129C 118.394,129.114 113.727,128.28 109.5,126.5C 118.927,124.238 128.594,123.904 138.5,125.5C 136.449,128.815 136.115,132.148 137.5,135.5 Z"/></g>
<g><path style="opacity:0.011" fill="#f9fbf8" d="M 100.5,125.5 C 101.774,126.189 101.774,127.023 100.5,128C 91.9896,128.823 83.6563,128.657 75.5,127.5C 82.8409,127.666 90.1742,127.5 97.5,127C 98.7375,126.768 99.7375,126.268 100.5,125.5 Z"/></g>
<g><path style="opacity:1" fill="#edf4f1" d="M 180.5,124.5 C 185.056,126.32 189.723,128.153 194.5,130C 197.044,132.222 197.044,134.389 194.5,136.5C 195.127,137.417 195.461,138.417 195.5,139.5C 192.17,136.748 189.17,137.081 186.5,140.5C 185.508,140.328 184.842,140.662 184.5,141.5C 182.486,141.392 180.82,142.058 179.5,143.5C 176.165,145.513 173.165,147.846 170.5,150.5C 167.744,150.284 165.41,149.284 163.5,147.5C 169.552,140.115 175.219,132.448 180.5,124.5 Z"/></g>
<g><path style="opacity:0.83" fill="#97c283" d="M 92.5,131.5 C 93.8333,132.167 93.8333,132.833 92.5,133.5C 44.5,132.833 44.5,132.167 92.5,131.5 Z"/></g>
<g><path style="opacity:0.047" fill="#eefde6" d="M 92.5,131.5 C 44.5,132.167 44.5,132.833 92.5,133.5C 80.3403,134.66 68.0069,134.827 55.5,134C 54.1667,133 54.1667,132 55.5,131C 68.0069,130.173 80.3403,130.34 92.5,131.5 Z"/></g>
<g><path style="opacity:0.98" fill="#aacf97" d="M 94.5,137.5 C 98.7032,137.076 102.703,137.576 106.5,139C 97.5062,139.5 88.5062,139.666 79.5,139.5C 78.9569,139.44 78.6236,139.107 78.5,138.5C 83.7921,137.505 89.1254,137.172 94.5,137.5 Z"/></g>
<g><path style="opacity:0.161" fill="#d9e8d4" d="M 137.5,136.5 C 138.906,136.973 139.573,137.973 139.5,139.5C 138.094,139.027 137.427,138.027 137.5,136.5 Z"/></g>
<g><path style="opacity:1" fill="#ebf3ee" d="M 109.5,126.5 C 113.727,128.28 118.394,129.114 123.5,129C 125.405,130.421 127.405,131.588 129.5,132.5C 130.936,137.847 131.936,143.181 132.5,148.5C 132.5,148.833 132.5,149.167 132.5,149.5C 130.446,149.365 128.779,150.032 127.5,151.5C 127.5,150.5 127.5,149.5 127.5,148.5C 117.985,148.173 108.652,148.506 99.5,149.5C 96.7267,149.188 94.3934,148.022 92.5,146C 84.8333,145.667 77.1667,145.333 69.5,145C 68.1175,143.539 68.4508,142.706 70.5,142.5C 75.1194,143.828 80.1194,144.494 85.5,144.5C 90.5,144.167 95.5,143.833 100.5,143.5C 97.5719,142.516 94.5719,142.183 91.5,142.5C 87.7675,140.869 83.7675,139.869 79.5,139.5C 88.5062,139.666 97.5062,139.5 106.5,139C 102.703,137.576 98.7032,137.076 94.5,137.5C 98.0608,134.468 102.061,131.968 106.5,130C 107.163,128.482 108.163,127.315 109.5,126.5 Z"/></g>
<g><path style="opacity:0.958" fill="#ecf3ed" d="M 158.5,129.5 C 157.572,133.483 158.905,136.15 162.5,137.5C 161.71,138.794 160.71,139.961 159.5,141C 152.842,141.5 146.175,141.666 139.5,141.5C 139.5,140.833 139.5,140.167 139.5,139.5C 145.818,142.019 149.151,140.019 149.5,133.5C 152.167,133.5 154.833,133.5 157.5,133.5C 157.232,131.901 157.566,130.568 158.5,129.5 Z"/></g>
<g><path style="opacity:0.004" fill="#fefffe" d="M 60.5,141.5 C 61.8333,142.167 61.8333,142.167 60.5,141.5 Z"/></g>
<g><path style="opacity:0.161" fill="#e2f2df" d="M 249.5,125.5 C 251.018,132.285 252.018,139.285 252.5,146.5C 251.739,153.16 251.072,159.827 250.5,166.5C 250.814,153.001 250.48,139.335 249.5,125.5 Z"/></g>
<g><path style="opacity:0.843" fill="#9ab78c" d="M 70.5,142.5 C 77.5,142.5 84.5,142.5 91.5,142.5C 94.5719,142.183 97.5719,142.516 100.5,143.5C 95.5,143.833 90.5,144.167 85.5,144.5C 80.1194,144.494 75.1194,143.828 70.5,142.5 Z"/></g>
<g><path style="opacity:1" fill="#68b246" d="M 184.5,141.5 C 190.431,142.358 192.597,145.691 191,151.5C 188.592,154.62 185.426,155.953 181.5,155.5C 177.149,152.062 176.483,148.062 179.5,143.5C 180.82,142.058 182.486,141.392 184.5,141.5 Z"/></g>
<g><path style="opacity:0.004" fill="#fefffe" d="M 73.5,148.5 C 74.8333,149.167 74.8333,149.167 73.5,148.5 Z"/></g>
<g><path style="opacity:0.097" fill="#e8fde1" d="M 163.5,147.5 C 153.554,149.475 143.221,150.142 132.5,149.5C 132.5,149.167 132.5,148.833 132.5,148.5C 142.915,148.808 153.249,148.475 163.5,147.5 Z"/></g>
<g><path style="opacity:1" fill="#438335" d="M 181.5,155.5 C 185.426,155.953 188.592,154.62 191,151.5C 192.597,145.691 190.431,142.358 184.5,141.5C 184.842,140.662 185.508,140.328 186.5,140.5C 190.735,138.439 193.901,139.439 196,143.5C 196.818,146.227 196.652,148.894 195.5,151.5C 193.163,153.421 191.329,155.754 190,158.5C 186.746,158.162 183.912,157.162 181.5,155.5 Z"/></g>
<g><path style="opacity:0.098" fill="#e5f3e2" d="M 33.5,111.5 C 28.567,129.195 27.2337,147.195 29.5,165.5C 26.5154,149.204 27.0154,132.87 31,116.5C 31.3736,114.509 32.207,112.842 33.5,111.5 Z"/></g>
<g><path style="opacity:0.251" fill="#cde2c9" d="M 245.5,125.5 C 247.025,131.93 247.692,138.596 247.5,145.5C 247.499,150.346 247.166,155.012 246.5,159.5C 246.627,148.148 246.294,136.815 245.5,125.5 Z"/></g>
<g><path style="opacity:0.247" fill="#c7e0c5" d="M 99.5,151.5 C 101.008,153.181 102.008,155.181 102.5,157.5C 100.461,156.089 99.461,154.089 99.5,151.5 Z"/></g>
<g><path style="opacity:1" fill="#6a9461" d="M 127.5,151.5 C 127.975,154.313 126.975,156.313 124.5,157.5C 125.167,154.833 125.833,152.167 126.5,149.5C 124.5,149.5 122.5,149.5 120.5,149.5C 116.167,149.5 111.833,149.5 107.5,149.5C 105.5,149.5 103.5,149.5 101.5,149.5C 103.274,152.118 104.274,155.118 104.5,158.5C 108.662,159.026 112.662,160.026 116.5,161.5C 114.735,162.461 112.735,162.795 110.5,162.5C 106.859,162.348 104.193,160.682 102.5,157.5C 102.008,155.181 101.008,153.181 99.5,151.5C 99.5,150.833 99.5,150.167 99.5,149.5C 108.652,148.506 117.985,148.173 127.5,148.5C 127.5,149.5 127.5,150.5 127.5,151.5 Z"/></g>
<g><path style="opacity:0.149" fill="#d3e6d2" d="M 197.5,142.5 C 198.222,142.918 198.722,143.584 199,144.5C 200.332,149.628 199.165,153.961 195.5,157.5C 197.242,152.692 197.909,147.692 197.5,142.5 Z"/></g>
<g><path style="opacity:0.004" fill="#fefffe" d="M 20.5,155.5 C 21.8333,156.167 21.8333,156.167 20.5,155.5 Z"/></g>
<g><path style="opacity:1" fill="#458337" d="M 107.5,149.5 C 108.908,155.035 112.242,156.535 117.5,154C 118.883,152.729 119.883,151.229 120.5,149.5C 122.5,149.5 124.5,149.5 126.5,149.5C 125.833,152.167 125.167,154.833 124.5,157.5C 122.117,159.358 119.45,160.692 116.5,161.5C 112.662,160.026 108.662,159.026 104.5,158.5C 104.274,155.118 103.274,152.118 101.5,149.5C 103.5,149.5 105.5,149.5 107.5,149.5 Z"/></g>
<g><path style="opacity:1" fill="#67b14a" d="M 107.5,149.5 C 111.833,149.5 116.167,149.5 120.5,149.5C 119.883,151.229 118.883,152.729 117.5,154C 112.242,156.535 108.908,155.035 107.5,149.5 Z"/></g>
<g><path style="opacity:1" fill="#538749" d="M 195.5,139.5 C 196.906,139.973 197.573,140.973 197.5,142.5C 197.909,147.692 197.242,152.692 195.5,157.5C 191.184,161.155 186.184,162.822 180.5,162.5C 174.646,160.643 171.313,156.643 170.5,150.5C 173.165,147.846 176.165,145.513 179.5,143.5C 176.483,148.062 177.149,152.062 181.5,155.5C 183.912,157.162 186.746,158.162 190,158.5C 191.329,155.754 193.163,153.421 195.5,151.5C 196.652,148.894 196.818,146.227 196,143.5C 193.901,139.439 190.735,138.439 186.5,140.5C 189.17,137.081 192.17,136.748 195.5,139.5 Z"/></g>
<g><path style="opacity:1" fill="#689160" d="M 33.5,111.5 C 32.207,112.842 31.3736,114.509 31,116.5C 27.0154,132.87 26.5154,149.204 29.5,165.5C 30.0996,170.334 30.7663,175.167 31.5,180C 31.3333,181.5 31.1667,183 31,184.5C 30.4338,182.277 29.6005,180.277 28.5,178.5C 27.596,177.791 27.2627,176.791 27.5,175.5C 27.1916,171.64 26.5249,167.974 25.5,164.5C 22.8758,151.636 22.8758,138.636 25.5,125.5C 27.0743,122.093 28.0743,118.427 28.5,114.5C 28.5,114.167 28.5,113.833 28.5,113.5C 30.0814,111.326 31.5814,108.993 33,106.5C 33.4935,108.134 33.6602,109.801 33.5,111.5 Z"/></g>
<g><path style="opacity:0.169" fill="#ddeeda" d="M 124.5,157.5 C 124.586,158.496 124.252,159.329 123.5,160C 119.429,163.217 115.096,164.05 110.5,162.5C 112.735,162.795 114.735,162.461 116.5,161.5C 119.45,160.692 122.117,159.358 124.5,157.5 Z"/></g>
<g><path style="opacity:0.004" fill="#fefffe" d="M 253.5,160.5 C 254.833,161.167 254.833,161.167 253.5,160.5 Z"/></g>
<g><path style="opacity:0.039" fill="#eff7e9" d="M 195.5,157.5 C 195.586,158.496 195.252,159.329 194.5,160C 190.093,163.293 185.427,164.127 180.5,162.5C 186.184,162.822 191.184,161.155 195.5,157.5 Z"/></g>
<g><path style="opacity:0.004" fill="#fefffe" d="M 169.5,163.5 C 170.833,164.167 170.833,164.167 169.5,163.5 Z"/></g>
<g><path style="opacity:0.004" fill="#fefffe" d="M 261.5,165.5 C 262.833,166.167 262.833,166.167 261.5,165.5 Z"/></g>
<g><path style="opacity:0.004" fill="#fefffe" d="M 110.5,167.5 C 111.833,168.167 111.833,168.167 110.5,167.5 Z"/></g>
<g><path style="opacity:0.004" fill="#fefffe" d="M 210.5,168.5 C 211.833,169.167 211.833,169.167 210.5,168.5 Z"/></g>
<g><path style="opacity:0.018" fill="#dcead7" d="M 25.5,164.5 C 26.5249,167.974 27.1916,171.64 27.5,175.5C 25.783,172.155 25.1164,168.489 25.5,164.5 Z"/></g>
<g><path style="opacity:0.038" fill="#e5fbe5" d="M 74.5,171.5 C 79.6503,170.349 84.9836,170.183 90.5,171C 91.056,171.383 91.3893,171.883 91.5,172.5C 90.8333,172.5 90.1667,172.5 89.5,172.5C 84.6946,171.513 79.6946,171.179 74.5,171.5 Z"/></g>
<g><path style="opacity:1" fill="#528448" d="M 158.5,171.5 C 161.5,171.5 164.5,171.5 167.5,171.5C 168.749,179.348 169.415,179.348 169.5,171.5C 172.5,171.5 175.5,171.5 178.5,171.5C 178.5,178.5 178.5,185.5 178.5,192.5C 176.167,192.5 173.833,192.5 171.5,192.5C 171.167,192.5 170.833,192.5 170.5,192.5C 169.167,192.5 167.833,192.5 166.5,192.5C 166.5,191.167 166.5,189.833 166.5,188.5C 168.492,188.672 170.158,188.005 171.5,186.5C 172.429,187.689 172.762,189.022 172.5,190.5C 174.167,190.5 175.833,190.5 177.5,190.5C 177.829,184.794 177.495,179.128 176.5,173.5C 175.264,174.246 173.93,174.579 172.5,174.5C 172.66,176.199 172.494,177.866 172,179.5C 168.915,178.861 165.415,178.861 161.5,179.5C 161.058,183.154 160.724,186.821 160.5,190.5C 161.833,190.5 163.167,190.5 164.5,190.5C 164.232,188.901 164.566,187.568 165.5,186.5C 165.5,188.5 165.5,190.5 165.5,192.5C 163.167,192.5 160.833,192.5 158.5,192.5C 158.5,185.5 158.5,178.5 158.5,171.5 Z"/></g>
<g><path style="opacity:0.106" fill="#e3edde" d="M 249.5,167.5 C 249.59,170.152 248.924,172.485 247.5,174.5C 247.171,171.772 247.837,169.438 249.5,167.5 Z"/></g>
<g><path style="opacity:1" fill="#699160" d="M 197.5,171.5 C 198.167,178.5 198.833,185.5 199.5,192.5C 196.167,192.5 192.833,192.5 189.5,192.5C 189.5,190.5 189.5,188.5 189.5,186.5C 190.492,186.672 191.158,186.338 191.5,185.5C 192.01,182.612 191.344,180.279 189.5,178.5C 190.209,177.596 191.209,177.263 192.5,177.5C 192.334,181.846 192.501,186.179 193,190.5C 194.356,191.38 195.856,191.714 197.5,191.5C 197.193,185.795 196.527,180.129 195.5,174.5C 192.579,173.593 189.579,173.26 186.5,173.5C 186.657,174.873 186.49,176.207 186,177.5C 184.359,179.84 182.859,182.173 181.5,184.5C 181.929,179.851 182.929,175.351 184.5,171C 189.02,170.186 193.354,170.353 197.5,171.5 Z"/></g>
<g><path style="opacity:0.282" fill="#dcf1d6" d="M 95.5,171.5 C 98.7307,170.218 102.064,170.218 105.5,171.5C 104.833,179.5 104.167,179.5 103.5,171.5C 100.833,171.5 98.1667,171.5 95.5,171.5 Z"/></g>
<g><path style="opacity:0.18" fill="#c9eec4" d="M 158.5,171.5 C 162.065,170.213 165.732,170.213 169.5,171.5C 169.415,179.348 168.749,179.348 167.5,171.5C 164.5,171.5 161.5,171.5 158.5,171.5 Z"/></g>
<g><path style="opacity:1" fill="#46813b" d="M 189.5,178.5 C 188.016,183.033 187.35,187.699 187.5,192.5C 185.167,192.5 182.833,192.5 180.5,192.5C 180.5,192.167 180.5,191.833 180.5,191.5C 180.5,190.833 180.5,190.167 180.5,189.5C 181.451,188.081 181.784,186.415 181.5,184.5C 182.859,182.173 184.359,179.84 186,177.5C 186.49,176.207 186.657,174.873 186.5,173.5C 189.579,173.26 192.579,173.593 195.5,174.5C 196.527,180.129 197.193,185.795 197.5,191.5C 195.856,191.714 194.356,191.38 193,190.5C 192.501,186.179 192.334,181.846 192.5,177.5C 191.209,177.263 190.209,177.596 189.5,178.5 Z M 191.5,185.5 C 191.158,186.338 190.492,186.672 189.5,186.5C 189.409,184.302 190.075,183.969 191.5,185.5 Z"/></g>
<g><path style="opacity:1" fill="#4a8240" d="M 95.5,171.5 C 98.1667,171.5 100.833,171.5 103.5,171.5C 104.167,179.5 104.833,179.5 105.5,171.5C 108.167,171.5 110.833,171.5 113.5,171.5C 113.5,178.5 113.5,185.5 113.5,192.5C 110.833,192.5 108.167,192.5 105.5,192.5C 105.5,191.167 105.5,189.833 105.5,188.5C 105.631,187.624 105.298,186.957 104.5,186.5C 103.534,188.396 103.201,190.396 103.5,192.5C 100.833,192.5 98.1667,192.5 95.5,192.5C 95.5,185.5 95.5,178.5 95.5,171.5 Z"/></g>
<g><path style="opacity:0.2" fill="#e5f5e1" d="M 132.5,173.5 C 134.04,179.199 135.707,184.866 137.5,190.5C 137.5,191.167 137.5,191.833 137.5,192.5C 133.732,193.787 130.065,193.787 126.5,192.5C 129.5,192.5 132.5,192.5 135.5,192.5C 134.66,186.807 133.66,181.14 132.5,175.5C 132.5,174.833 132.5,174.167 132.5,173.5 Z"/></g>
<g><path style="opacity:1" fill="#6f9866" d="M 156.5,175.5 C 156.806,179.198 156.139,182.698 154.5,186C 154.808,187.459 155.475,188.626 156.5,189.5C 156.5,189.833 156.5,190.167 156.5,190.5C 156.5,191.167 156.5,191.833 156.5,192.5C 153.833,193.833 151.167,193.833 148.5,192.5C 148.5,191.833 148.5,191.167 148.5,190.5C 149.833,190.5 151.167,190.5 152.5,190.5C 151.393,186.608 151.727,182.775 153.5,179C 152.582,176.914 151.915,174.747 151.5,172.5C 147.5,172.5 143.5,172.5 139.5,172.5C 138.62,179.123 138.287,185.789 138.5,192.5C 138.167,192.5 137.833,192.5 137.5,192.5C 137.5,191.833 137.5,191.167 137.5,190.5C 137.5,183.833 137.5,177.167 137.5,170.5C 142.844,170.334 148.177,170.501 153.5,171C 155.863,171.589 156.863,173.089 156.5,175.5 Z"/></g>
<g><path style="opacity:1" fill="#45803b" d="M 148.5,190.5 C 146.317,186.808 145.317,187.475 145.5,192.5C 143.167,192.5 140.833,192.5 138.5,192.5C 138.287,185.789 138.62,179.123 139.5,172.5C 143.5,172.5 147.5,172.5 151.5,172.5C 151.915,174.747 152.582,176.914 153.5,179C 151.727,182.775 151.393,186.608 152.5,190.5C 151.167,190.5 149.833,190.5 148.5,190.5 Z"/></g>
<g><path style="opacity:0.383" fill="#d4e9d0" d="M 169.5,171.5 C 172.899,170.18 176.399,170.18 180,171.5C 180.175,176.019 180.675,180.353 181.5,184.5C 181.784,186.415 181.451,188.081 180.5,189.5C 179.541,185.248 179.541,185.915 180.5,191.5C 180.5,191.833 180.5,192.167 180.5,192.5C 177.396,193.775 174.396,193.775 171.5,192.5C 173.833,192.5 176.167,192.5 178.5,192.5C 178.5,185.5 178.5,178.5 178.5,171.5C 175.5,171.5 172.5,171.5 169.5,171.5 Z"/></g>
<g><path style="opacity:0.039" fill="#eafde5" d="M 114.5,171.5 C 115.167,176.833 115.833,182.167 116.5,187.5C 116.5,189.167 116.5,190.833 116.5,192.5C 119.167,192.5 121.833,192.5 124.5,192.5C 121.269,193.782 117.936,193.782 114.5,192.5C 114.5,185.5 114.5,178.5 114.5,171.5 Z"/></g>
<g><path style="opacity:0.008" fill="#dcebd8" d="M 244.5,171.5 C 243.669,175.476 243.503,179.476 244,183.5C 245.296,180.429 246.462,177.429 247.5,174.5C 247.563,178.978 246.23,182.978 243.5,186.5C 243.167,184.5 242.833,182.5 242.5,180.5C 242.343,177.186 243.009,174.186 244.5,171.5 Z"/></g>
<g><path style="opacity:0.606" fill="#b4cfb0" d="M 105.5,171.5 C 108.5,170.167 111.5,170.167 114.5,171.5C 114.5,178.5 114.5,185.5 114.5,192.5C 111.5,193.833 108.5,193.833 105.5,192.5C 108.167,192.5 110.833,192.5 113.5,192.5C 113.5,185.5 113.5,178.5 113.5,171.5C 110.833,171.5 108.167,171.5 105.5,171.5 Z"/></g>
<g><path style="opacity:0.004" fill="#fefffe" d="M 253.5,178.5 C 254.833,179.167 254.833,179.167 253.5,178.5 Z"/></g>
<g><path style="opacity:1" fill="#5e8756" d="M 74.5,171.5 C 79.6946,171.179 84.6946,171.513 89.5,172.5C 85.1578,172.739 80.8244,173.073 76.5,173.5C 76.5,179.167 76.5,184.833 76.5,190.5C 78.5,190.5 80.5,190.5 82.5,190.5C 80.3647,192.369 77.6981,193.036 74.5,192.5C 74.5,185.5 74.5,178.5 74.5,171.5 Z"/></g>
<g><path style="opacity:1" fill="#49823d" d="M 89.5,172.5 C 90.1667,172.5 90.8333,172.5 91.5,172.5C 92.9063,172.973 93.573,173.973 93.5,175.5C 93.7583,179.367 93.0916,183.034 91.5,186.5C 88.9966,187.084 86.4966,187.751 84,188.5C 82.9701,188.836 82.4701,189.503 82.5,190.5C 80.5,190.5 78.5,190.5 76.5,190.5C 76.5,184.833 76.5,179.167 76.5,173.5C 80.8244,173.073 85.1578,172.739 89.5,172.5 Z"/></g>
<g><path style="opacity:0.157" fill="#d4f1d3" d="M 83.5,176.5 C 84.6935,176.97 85.3601,177.97 85.5,179.5C 85.1667,180.5 84.8333,181.5 84.5,182.5C 83.5344,180.604 83.2011,178.604 83.5,176.5 Z"/></g>
<g><path style="opacity:0.357" fill="#b8dfaf" d="M 145.5,176.5 C 146.649,176.791 147.316,177.624 147.5,179C 147.167,179.833 146.833,180.667 146.5,181.5C 145.548,179.955 145.215,178.288 145.5,176.5 Z"/></g>
<g><path style="opacity:1" fill="#448139" d="M 166.5,188.5 C 166.672,187.508 166.338,186.842 165.5,186.5C 164.566,187.568 164.232,188.901 164.5,190.5C 163.167,190.5 161.833,190.5 160.5,190.5C 160.724,186.821 161.058,183.154 161.5,179.5C 165.415,178.861 168.915,178.861 172,179.5C 172.494,177.866 172.66,176.199 172.5,174.5C 173.93,174.579 175.264,174.246 176.5,173.5C 177.495,179.128 177.829,184.794 177.5,190.5C 175.833,190.5 174.167,190.5 172.5,190.5C 172.762,189.022 172.429,187.689 171.5,186.5C 170.158,188.005 168.492,188.672 166.5,188.5 Z"/></g>
<g><path style="opacity:0.004" fill="#fefffe" d="M 54.5,180.5 C 55.8333,181.167 55.8333,181.167 54.5,180.5 Z"/></g>
<g><path style="opacity:0.157" fill="#daeed8" d="M 95.5,171.5 C 95.5,178.5 95.5,185.5 95.5,192.5C 94.6805,189.695 94.1805,186.695 94,183.5C 93.6232,184.942 92.7899,185.942 91.5,186.5C 93.0916,183.034 93.7583,179.367 93.5,175.5C 94.1667,174.167 94.8333,172.833 95.5,171.5 Z"/></g>
<g><path style="opacity:1" fill="#46823c" d="M 132.5,175.5 C 133.66,181.14 134.66,186.807 135.5,192.5C 132.5,192.5 129.5,192.5 126.5,192.5C 126.5,192.167 126.5,191.833 126.5,191.5C 126.843,189.517 126.176,188.183 124.5,187.5C 123.163,188.315 122.163,189.482 121.5,191C 120.552,191.483 119.552,191.649 118.5,191.5C 118.232,185.051 118.898,178.717 120.5,172.5C 123.833,172.5 127.167,172.5 130.5,172.5C 130.285,174.179 130.952,175.179 132.5,175.5 Z"/></g>
<g><path style="opacity:0.2" fill="#e3eee1" d="M 29.5,165.5 C 32.5405,172.653 33.0405,179.987 31,187.5C 29.4511,184.688 28.6178,181.688 28.5,178.5C 29.6005,180.277 30.4338,182.277 31,184.5C 31.1667,183 31.3333,181.5 31.5,180C 30.7663,175.167 30.0996,170.334 29.5,165.5 Z"/></g>
<g><path style="opacity:0.031" fill="#defadb" d="M 124.5,187.5 C 126.176,188.183 126.843,189.517 126.5,191.5C 125.833,191.833 125.167,192.167 124.5,192.5C 124.5,190.833 124.5,189.167 124.5,187.5 Z"/></g>
<g><path style="opacity:0.031" fill="#dbeed6" d="M 91.5,186.5 C 89.8243,188.834 87.491,189.834 84.5,189.5C 84.67,190.822 84.3366,191.989 83.5,193C 80.3035,193.805 77.3035,193.638 74.5,192.5C 77.6981,193.036 80.3647,192.369 82.5,190.5C 82.4701,189.503 82.9701,188.836 84,188.5C 86.4966,187.751 88.9966,187.084 91.5,186.5 Z"/></g>
<g><path style="opacity:0.996" fill="#7a9c74" d="M 132.5,173.5 C 132.5,174.167 132.5,174.833 132.5,175.5C 130.952,175.179 130.285,174.179 130.5,172.5C 127.167,172.5 123.833,172.5 120.5,172.5C 118.898,178.717 118.232,185.051 118.5,191.5C 119.552,191.649 120.552,191.483 121.5,191C 122.163,189.482 123.163,188.315 124.5,187.5C 124.5,189.167 124.5,190.833 124.5,192.5C 121.833,192.5 119.167,192.5 116.5,192.5C 116.5,190.833 116.5,189.167 116.5,187.5C 117.329,182.179 118.162,176.846 119,171.5C 123.401,170.533 127.901,170.2 132.5,170.5C 132.5,171.5 132.5,172.5 132.5,173.5 Z"/></g>
<g><path style="opacity:0.039" fill="#d9f2d9" d="M 105.5,188.5 C 104.549,189.919 104.216,191.585 104.5,193.5C 101.287,193.81 98.2869,193.477 95.5,192.5C 98.1667,192.5 100.833,192.5 103.5,192.5C 103.201,190.396 103.534,188.396 104.5,186.5C 105.298,186.957 105.631,187.624 105.5,188.5 Z"/></g>
<g><path style="opacity:0.039" fill="#d6f0d0" d="M 148.5,190.5 C 148.5,191.167 148.5,191.833 148.5,192.5C 147.033,189.742 146.367,190.075 146.5,193.5C 143.287,193.81 140.287,193.477 137.5,192.5C 137.833,192.5 138.167,192.5 138.5,192.5C 140.833,192.5 143.167,192.5 145.5,192.5C 145.317,187.475 146.317,186.808 148.5,190.5 Z"/></g>
<g><path style="opacity:0.039" fill="#ddf7d9" d="M 158.5,171.5 C 158.5,178.5 158.5,185.5 158.5,192.5C 160.833,192.5 163.167,192.5 165.5,192.5C 165.5,190.5 165.5,188.5 165.5,186.5C 166.338,186.842 166.672,187.508 166.5,188.5C 166.5,189.833 166.5,191.167 166.5,192.5C 167.833,192.5 169.167,192.5 170.5,192.5C 165.934,193.797 161.267,193.797 156.5,192.5C 156.5,191.833 156.5,191.167 156.5,190.5C 157.247,182.068 157.247,181.735 156.5,189.5C 155.475,188.626 154.808,187.459 154.5,186C 156.139,182.698 156.806,179.198 156.5,175.5C 157.167,174.167 157.833,172.833 158.5,171.5 Z"/></g>
<g><path style="opacity:0.039" fill="#daf1d9" d="M 197.5,171.5 C 199.302,178.314 200.469,185.314 201,192.5C 194.068,193.827 187.235,193.827 180.5,192.5C 182.833,192.5 185.167,192.5 187.5,192.5C 187.35,187.699 188.016,183.033 189.5,178.5C 191.344,180.279 192.01,182.612 191.5,185.5C 190.075,183.969 189.409,184.302 189.5,186.5C 189.5,188.5 189.5,190.5 189.5,192.5C 192.833,192.5 196.167,192.5 199.5,192.5C 198.833,185.5 198.167,178.5 197.5,171.5 Z M 191.5,185.5 C 191.158,186.338 190.492,186.672 189.5,186.5C 189.409,184.302 190.075,183.969 191.5,185.5 Z"/></g>
<g><path style="opacity:0.004" fill="#fefffe" d="M 102.5,198.5 C 103.833,199.167 103.833,199.167 102.5,198.5 Z"/></g>
<g><path style="opacity:0.039" fill="#f0fdec" d="M 232.5,200.5 C 229.167,200.5 225.833,200.5 222.5,200.5C 224.556,199.784 226.723,199.117 229,198.5C 230.302,199.085 231.469,199.751 232.5,200.5 Z"/></g>
<g><path style="opacity:0.352" fill="#c9dec5" d="M 191.5,201.5 C 191.5,201.833 191.5,202.167 191.5,202.5C 169.839,203.11 148.172,203.443 126.5,203.5C 147.988,202.192 169.654,201.526 191.5,201.5 Z"/></g>
<g><path style="opacity:1" fill="#5f8c57" d="M 191.5,202.5 C 178.032,204.067 164.365,204.733 150.5,204.5C 135.802,204.642 121.136,205.309 106.5,206.5C 94.8333,206.5 83.1667,206.5 71.5,206.5C 79.5,205.833 87.5,205.167 95.5,204.5C 105.81,203.661 116.143,203.328 126.5,203.5C 148.172,203.443 169.839,203.11 191.5,202.5 Z"/></g>
<g><path style="opacity:1" fill="#49813f" d="M 150.5,204.5 C 149.737,205.268 148.737,205.768 147.5,206C 149.974,206.113 151.974,207.113 153.5,209C 152.5,209.333 151.5,209.667 150.5,210C 152.25,211.319 154.25,211.819 156.5,211.5C 156.5,211.833 156.5,212.167 156.5,212.5C 154.537,219.424 153.87,226.757 154.5,234.5C 161.022,234.823 167.355,234.49 173.5,233.5C 174.167,233.5 174.833,233.5 175.5,233.5C 178.385,233.806 181.052,233.473 183.5,232.5C 183.5,231.5 183.5,230.5 183.5,229.5C 184.837,230.315 185.837,231.482 186.5,233C 188.81,233.497 191.143,233.663 193.5,233.5C 194.391,232.739 195.058,231.739 195.5,230.5C 194.243,227.177 194.243,223.844 195.5,220.5C 196.183,220.863 196.85,221.196 197.5,221.5C 198.167,222.167 198.833,222.833 199.5,223.5C 199.5,226.833 199.5,230.167 199.5,233.5C 202.833,233.5 206.167,233.5 209.5,233.5C 209.5,230.167 209.5,226.833 209.5,223.5C 210.655,220.543 211.655,217.543 212.5,214.5C 213.404,213.791 213.737,212.791 213.5,211.5C 210.833,211.5 208.167,211.5 205.5,211.5C 205.5,212.833 205.5,214.167 205.5,215.5C 204.833,215.833 204.167,216.167 203.5,216.5C 203.5,214.833 203.5,213.167 203.5,211.5C 200.833,211.5 198.167,211.5 195.5,211.5C 195.5,210.5 195.5,209.5 195.5,208.5C 202.133,209.214 208.8,209.714 215.5,210C 216.066,210.995 216.733,211.828 217.5,212.5C 215.664,216.171 213.831,219.838 212,223.5C 211.891,228.056 210.891,232.389 209,236.5C 208.5,236 208,235.5 207.5,235C 203.961,234.718 200.461,234.218 197,233.5C 193.839,234.401 191.839,236.401 191,239.5C 190.751,238.376 190.251,237.376 189.5,236.5C 189.167,237.167 188.833,237.833 188.5,238.5C 187.571,237.311 187.238,235.978 187.5,234.5C 185.833,234.5 184.167,234.5 182.5,234.5C 182.034,236.201 182.034,237.701 182.5,239C 181.437,240.188 180.103,240.688 178.5,240.5C 178.5,239.5 178.5,238.5 178.5,237.5C 175.692,237.693 173.025,238.36 170.5,239.5C 170.5,238.167 170.5,236.833 170.5,235.5C 166.462,235.958 162.462,236.624 158.5,237.5C 158.33,238.822 158.663,239.989 159.5,241C 161.715,241.17 163.715,241.837 165.5,243C 164.167,243.333 162.833,243.667 161.5,244C 166.558,245.01 171.391,244.51 176,242.5C 183.9,243.082 191.733,243.415 199.5,243.5C 199.5,243.833 199.5,244.167 199.5,244.5C 195.058,244.032 191.058,245.032 187.5,247.5C 184.001,247.741 183.668,246.908 186.5,245C 182.642,244.19 178.976,244.357 175.5,245.5C 148.827,245.996 122.161,246.663 95.5,247.5C 97.3682,245.311 99.8682,243.978 103,243.5C 106.266,244.464 109.599,245.131 113,245.5C 127.487,244.744 141.987,244.244 156.5,244C 154.699,243.683 154.366,243.016 155.5,242C 154.552,241.517 153.552,241.351 152.5,241.5C 152.674,239.139 153.007,236.806 153.5,234.5C 152.5,234.5 151.5,234.5 150.5,234.5C 151.127,229.859 151.46,225.193 151.5,220.5C 151.5,219.5 151.5,218.5 151.5,217.5C 152.434,216.432 152.768,215.099 152.5,213.5C 146.132,213.17 139.798,213.504 133.5,214.5C 133.863,215.183 134.196,215.85 134.5,216.5C 134.5,217.167 134.5,217.833 134.5,218.5C 135.296,223.816 135.963,229.149 136.5,234.5C 140.833,234.5 145.167,234.5 149.5,234.5C 148.699,236.042 148.366,237.708 148.5,239.5C 147.5,239.5 146.5,239.5 145.5,239.5C 145.5,238.5 145.5,237.5 145.5,236.5C 141.814,237.648 138.147,237.648 134.5,236.5C 130.966,237.131 127.466,237.798 124,238.5C 123.517,237.552 123.351,236.552 123.5,235.5C 126.5,235.5 129.5,235.5 132.5,235.5C 132.5,228.167 132.5,220.833 132.5,213.5C 129.167,213.5 125.833,213.5 122.5,213.5C 122.5,220.833 122.5,228.167 122.5,235.5C 122.167,235.5 121.833,235.5 121.5,235.5C 122.036,232.302 121.369,229.635 119.5,227.5C 117.735,226.539 115.735,226.205 113.5,226.5C 113.169,223.175 112.836,219.841 112.5,216.5C 112.613,214.359 113.28,212.525 114.5,211C 111.8,210.747 109.133,210.747 106.5,211C 106.034,209.701 106.034,208.201 106.5,206.5C 121.136,205.309 135.802,204.642 150.5,204.5 Z M 203.5,216.5 C 203.369,217.376 203.702,218.043 204.5,218.5C 205.386,217.675 205.719,216.675 205.5,215.5C 206.291,213.557 207.791,212.557 210,212.5C 211.376,212.684 212.209,213.351 212.5,214.5C 211.655,217.543 210.655,220.543 209.5,223.5C 208.523,226.287 208.19,229.287 208.5,232.5C 206.167,232.5 203.833,232.5 201.5,232.5C 201.932,229.123 201.265,226.123 199.5,223.5C 199.598,221.447 198.931,219.78 197.5,218.5C 197.5,218.167 197.5,217.833 197.5,217.5C 197.67,216.178 197.337,215.011 196.5,214C 198.433,213.749 200.266,213.249 202,212.5C 202.21,214.058 202.71,215.391 203.5,216.5 Z M 163.5,219.5 C 162.295,221.41 162.962,222.743 165.5,223.5C 167.747,222.626 170.08,222.292 172.5,222.5C 172.5,223.5 172.5,224.5 172.5,225.5C 169.482,225.335 166.482,225.502 163.5,226C 162.226,226.977 162.226,227.811 163.5,228.5C 166.287,229.477 169.287,229.81 172.5,229.5C 172.5,230.5 172.5,231.5 172.5,232.5C 169.615,232.194 166.948,232.527 164.5,233.5C 161.5,233.5 158.5,233.5 155.5,233.5C 155.5,227.167 155.5,220.833 155.5,214.5C 160.565,214.781 165.565,214.448 170.5,213.5C 171.452,215.045 171.785,216.712 171.5,218.5C 168.615,218.194 165.948,218.527 163.5,219.5 Z M 151.5,217.5 C 151.5,218.5 151.5,219.5 151.5,220.5C 150.291,224.618 149.624,228.951 149.5,233.5C 145.5,233.5 141.5,233.5 137.5,233.5C 137.876,228.106 136.876,223.106 134.5,218.5C 134.5,217.833 134.5,217.167 134.5,216.5C 136.126,214.757 138.126,214.257 140.5,215C 142.239,224.924 143.906,224.924 145.5,215C 147.473,214.505 149.473,214.338 151.5,214.5C 151.5,215.5 151.5,216.5 151.5,217.5 Z M 129.5,214.5 C 130.117,214.611 130.617,214.944 131,215.5C 131.5,221.825 131.666,228.158 131.5,234.5C 128.813,234.664 126.146,234.497 123.5,234C 123.877,227.929 123.877,221.762 123.5,215.5C 125.735,215.795 127.735,215.461 129.5,214.5 Z M 192.5,215.5 C 192.68,219.215 192.346,222.882 191.5,226.5C 191.977,228.597 192.643,230.597 193.5,232.5C 191.473,232.662 189.473,232.495 187.5,232C 186.696,230.229 185.529,228.729 184,227.5C 183.536,228.094 183.369,228.761 183.5,229.5C 183.5,230.5 183.5,231.5 183.5,232.5C 181.167,232.5 178.833,232.5 176.5,232.5C 176.817,228.298 176.483,224.298 175.5,220.5C 175.5,218.833 175.5,217.167 175.5,215.5C 176.738,215.19 176.738,214.69 175.5,214C 180.5,213.333 185.5,213.333 190.5,214C 191.044,214.717 191.711,215.217 192.5,215.5 Z"/></g>
<g><path style="opacity:1" fill="#448139" d="M 191.5,202.5 C 202.167,202.5 212.833,202.5 223.5,202.5C 222.235,203.479 220.901,204.479 219.5,205.5C 220.262,205.911 221.262,206.077 222.5,206C 225.207,209.327 224.874,212.16 221.5,214.5C 221.163,211.664 219.829,210.998 217.5,212.5C 216.733,211.828 216.066,210.995 215.5,210C 208.8,209.714 202.133,209.214 195.5,208.5C 195.5,209.5 195.5,210.5 195.5,211.5C 194.719,213.628 193.719,213.795 192.5,212C 180.505,211.5 168.505,211.333 156.5,211.5C 154.25,211.819 152.25,211.319 150.5,210C 151.5,209.667 152.5,209.333 153.5,209C 151.974,207.113 149.974,206.113 147.5,206C 148.737,205.768 149.737,205.268 150.5,204.5C 164.365,204.733 178.032,204.067 191.5,202.5 Z"/></g>
<g><path style="opacity:0.004" fill="#fefffe" d="M 239.5,206.5 C 240.833,207.167 240.833,207.167 239.5,206.5 Z"/></g>
<g><path style="opacity:1" fill="#49813f" d="M 71.5,206.5 C 83.1667,206.5 94.8333,206.5 106.5,206.5C 106.034,208.201 106.034,209.701 106.5,211C 109.133,210.747 111.8,210.747 114.5,211C 113.28,212.525 112.613,214.359 112.5,216.5C 112.836,219.841 113.169,223.175 113.5,226.5C 115.735,226.205 117.735,226.539 119.5,227.5C 116.833,227.5 114.167,227.5 111.5,227.5C 111.5,224.5 111.5,221.5 111.5,218.5C 111.5,217.167 111.5,215.833 111.5,214.5C 108.167,214.5 104.833,214.5 101.5,214.5C 101.5,212.5 101.5,210.5 101.5,208.5C 99.6096,208.297 98.1096,208.963 97,210.5C 91.2176,209.716 85.3843,209.05 79.5,208.5C 79.5,209.833 79.5,211.167 79.5,212.5C 77.7988,212.034 76.2988,212.034 75,212.5C 74.6666,210.953 75.1666,209.62 76.5,208.5C 66.1513,208.128 55.818,207.794 45.5,207.5C 45.6579,213.17 45.9913,218.67 46.5,224C 45.8333,224.333 45.1667,224.667 44.5,225C 45.6526,226.883 47.3193,227.716 49.5,227.5C 49.6641,230.187 49.4974,232.854 49,235.5C 47.2942,236.308 46.4609,237.641 46.5,239.5C 45.8826,239.389 45.3826,239.056 45,238.5C 44.5026,241.146 44.3359,243.813 44.5,246.5C 46.8484,246.67 49.1817,247.003 51.5,247.5C 55.7531,246.749 59.7531,245.416 63.5,243.5C 63.5,244.5 63.5,245.5 63.5,246.5C 70.8708,246.765 78.2041,246.431 85.5,245.5C 87.9872,245.759 89.9872,246.759 91.5,248.5C 90.5,248.5 89.5,248.5 88.5,248.5C 73.1553,248.43 57.822,248.763 42.5,249.5C 42.1969,235.166 41.8636,220.832 41.5,206.5C 51.5,206.5 61.5,206.5 71.5,206.5 Z"/></g>
<g><path style="opacity:1" fill="#6a9262" d="M 222.5,200.5 C 225.833,200.5 229.167,200.5 232.5,200.5C 232.5,208.167 232.5,215.833 232.5,223.5C 231.778,216.965 230.945,210.298 230,203.5C 227.959,202.577 225.792,202.244 223.5,202.5C 212.833,202.5 202.167,202.5 191.5,202.5C 191.5,202.167 191.5,201.833 191.5,201.5C 201.81,200.661 212.143,200.328 222.5,200.5 Z"/></g>
<g><path style="opacity:0.004" fill="#fefffe" d="M 18.5,210.5 C 19.8333,211.167 19.8333,211.167 18.5,210.5 Z"/></g>
<g><path style="opacity:1" fill="#438238" d="M 101.5,214.5 C 94.6457,214.176 87.979,214.509 81.5,215.5C 79.158,216.987 77.158,216.654 75.5,214.5C 70.3497,213.349 65.0164,213.183 59.5,214C 59,214.5 58.5,215 58,215.5C 57.9613,223.906 58.7946,232.24 60.5,240.5C 59.1779,240.67 58.0113,240.337 57,239.5C 55.5959,231.177 53.7626,230.844 51.5,238.5C 49.9547,239.452 48.288,239.785 46.5,239.5C 46.4609,237.641 47.2942,236.308 49,235.5C 49.4974,232.854 49.6641,230.187 49.5,227.5C 47.3193,227.716 45.6526,226.883 44.5,225C 45.1667,224.667 45.8333,224.333 46.5,224C 45.9913,218.67 45.6579,213.17 45.5,207.5C 55.818,207.794 66.1513,208.128 76.5,208.5C 75.1666,209.62 74.6666,210.953 75,212.5C 76.2988,212.034 77.7988,212.034 79.5,212.5C 79.5,211.167 79.5,209.833 79.5,208.5C 85.3843,209.05 91.2176,209.716 97,210.5C 98.1096,208.963 99.6096,208.297 101.5,208.5C 101.5,210.5 101.5,212.5 101.5,214.5 Z"/></g>
<g><path style="opacity:0.314" fill="#d6ebcd" d="M 212.5,214.5 C 212.209,213.351 211.376,212.684 210,212.5C 207.791,212.557 206.291,213.557 205.5,215.5C 205.5,214.167 205.5,212.833 205.5,211.5C 208.167,211.5 210.833,211.5 213.5,211.5C 213.737,212.791 213.404,213.791 212.5,214.5 Z"/></g>
<g><path style="opacity:0.004" fill="#dbebd9" d="M 195.5,211.5 C 198.167,211.5 200.833,211.5 203.5,211.5C 203.5,213.167 203.5,214.833 203.5,216.5C 202.71,215.391 202.21,214.058 202,212.5C 200.266,213.249 198.433,213.749 196.5,214C 197.337,215.011 197.67,216.178 197.5,217.5C 195.926,215.898 195.259,213.898 195.5,211.5 Z"/></g>
<g><path style="opacity:1" fill="#45813a" d="M 223.5,202.5 C 225.792,202.244 227.959,202.577 230,203.5C 230.945,210.298 231.778,216.965 232.5,223.5C 233.491,229.979 233.824,236.646 233.5,243.5C 224.833,243.5 216.167,243.5 207.5,243.5C 214.758,242.912 222.091,241.912 229.5,240.5C 226.966,239.223 224.466,239.223 222,240.5C 221.171,235.136 221.337,229.802 222.5,224.5C 225.167,223.167 225.167,221.833 222.5,220.5C 218.846,226.245 217.013,232.579 217,239.5C 215.853,240.458 214.853,240.125 214,238.5C 213.333,235.833 213.333,233.167 214,230.5C 215.788,225.609 216.955,220.609 217.5,215.5C 219.099,215.768 220.432,215.434 221.5,214.5C 224.874,212.16 225.207,209.327 222.5,206C 221.262,206.077 220.262,205.911 219.5,205.5C 220.901,204.479 222.235,203.479 223.5,202.5 Z"/></g>
<g><path style="opacity:0.224" fill="#d3e7d0" d="M 60.5,215.5 C 64.8461,215.334 69.1794,215.501 73.5,216C 74.4158,216.278 75.0825,216.778 75.5,217.5C 70.9533,216.324 66.4533,216.324 62,217.5C 61.8317,223.495 61.9983,229.495 62.5,235.5C 66.1667,235.5 69.8333,235.5 73.5,235.5C 69.7016,236.483 65.7016,236.817 61.5,236.5C 60.5088,229.687 60.1755,222.687 60.5,215.5 Z"/></g>
<g><path style="opacity:0.013" fill="#fafff9" d="M 81.5,216.5 C 81.5,216.167 81.5,215.833 81.5,215.5C 87.5,215.5 93.5,215.5 99.5,215.5C 99.5,216.833 99.5,218.167 99.5,219.5C 98.596,218.791 98.2627,217.791 98.5,216.5C 92.8333,216.5 87.1667,216.5 81.5,216.5 Z"/></g>
<g><path style="opacity:0.459" fill="#bed9b8" d="M 123.5,235.5 C 123.167,235.5 122.833,235.5 122.5,235.5C 122.5,228.167 122.5,220.833 122.5,213.5C 125.833,213.5 129.167,213.5 132.5,213.5C 132.5,220.833 132.5,228.167 132.5,235.5C 129.5,235.5 126.5,235.5 123.5,235.5 Z M 129.5,214.5 C 127.735,215.461 125.735,215.795 123.5,215.5C 123.877,221.762 123.877,227.929 123.5,234C 126.146,234.497 128.813,234.664 131.5,234.5C 131.666,228.158 131.5,221.825 131,215.5C 130.617,214.944 130.117,214.611 129.5,214.5 Z"/></g>
<g><path style="opacity:0.008" fill="#e0e8e0" d="M 205.5,215.5 C 205.719,216.675 205.386,217.675 204.5,218.5C 203.702,218.043 203.369,217.376 203.5,216.5C 204.167,216.167 204.833,215.833 205.5,215.5 Z"/></g>
<g><path style="opacity:0.829" fill="#b0c5ab" d="M 151.5,217.5 C 151.5,216.5 151.5,215.5 151.5,214.5C 149.473,214.338 147.473,214.505 145.5,215C 143.906,224.924 142.239,224.924 140.5,215C 138.126,214.257 136.126,214.757 134.5,216.5C 134.196,215.85 133.863,215.183 133.5,214.5C 139.798,213.504 146.132,213.17 152.5,213.5C 152.768,215.099 152.434,216.432 151.5,217.5 Z"/></g>
<g><path style="opacity:0.125" fill="#d0e8cc" d="M 156.5,212.5 C 161.833,212.5 167.167,212.5 172.5,212.5C 172.5,214.833 172.5,217.167 172.5,219.5C 169.5,219.5 166.5,219.5 163.5,219.5C 165.948,218.527 168.615,218.194 171.5,218.5C 171.785,216.712 171.452,215.045 170.5,213.5C 165.565,214.448 160.565,214.781 155.5,214.5C 155.5,220.833 155.5,227.167 155.5,233.5C 158.5,233.5 161.5,233.5 164.5,233.5C 167.5,233.5 170.5,233.5 173.5,233.5C 167.355,234.49 161.022,234.823 154.5,234.5C 153.87,226.757 154.537,219.424 156.5,212.5 Z"/></g>
<g><path style="opacity:1" fill="#668f5c" d="M 156.5,212.5 C 156.5,212.167 156.5,211.833 156.5,211.5C 168.505,211.333 180.505,211.5 192.5,212C 193.719,213.795 194.719,213.628 195.5,211.5C 195.259,213.898 195.926,215.898 197.5,217.5C 197.5,217.833 197.5,218.167 197.5,218.5C 197.5,219.5 197.5,220.5 197.5,221.5C 196.85,221.196 196.183,220.863 195.5,220.5C 194.243,223.844 194.243,227.177 195.5,230.5C 195.058,231.739 194.391,232.739 193.5,233.5C 193.5,233.167 193.5,232.833 193.5,232.5C 192.643,230.597 191.977,228.597 191.5,226.5C 192.346,222.882 192.68,219.215 192.5,215.5C 192.586,214.504 192.252,213.671 191.5,213C 185.843,212.501 180.176,212.334 174.5,212.5C 174.263,213.791 174.596,214.791 175.5,215.5C 175.5,217.167 175.5,218.833 175.5,220.5C 175.5,224.833 175.5,229.167 175.5,233.5C 174.833,233.5 174.167,233.5 173.5,233.5C 173.784,231.585 173.451,229.919 172.5,228.5C 170.031,227.683 167.365,227.183 164.5,227C 167.365,226.817 170.031,226.317 172.5,225.5C 172.5,224.5 172.5,223.5 172.5,222.5C 169.203,222.11 166.203,221.11 163.5,219.5C 166.5,219.5 169.5,219.5 172.5,219.5C 172.5,217.167 172.5,214.833 172.5,212.5C 167.167,212.5 161.833,212.5 156.5,212.5 Z M 192.5,215.5 C 192.68,219.215 192.346,222.882 191.5,226.5C 191.977,228.597 192.643,230.597 193.5,232.5C 191.473,232.662 189.473,232.495 187.5,232C 186.696,230.229 185.529,228.729 184,227.5C 183.536,228.094 183.369,228.761 183.5,229.5C 183.5,230.5 183.5,231.5 183.5,232.5C 181.167,232.5 178.833,232.5 176.5,232.5C 176.817,228.298 176.483,224.298 175.5,220.5C 175.5,218.833 175.5,217.167 175.5,215.5C 176.738,215.19 176.738,214.69 175.5,214C 180.5,213.333 185.5,213.333 190.5,214C 191.044,214.717 191.711,215.217 192.5,215.5 Z"/></g>
<g><path style="opacity:0.133" fill="#d9f0d5" d="M 192.5,215.5 C 191.711,215.217 191.044,214.717 190.5,214C 185.5,213.333 180.5,213.333 175.5,214C 176.738,214.69 176.738,215.19 175.5,215.5C 174.596,214.791 174.263,213.791 174.5,212.5C 180.176,212.334 185.843,212.501 191.5,213C 192.252,213.671 192.586,214.504 192.5,215.5 Z"/></g>
<g><path style="opacity:0.302" fill="#cdd7cc" d="M 182.5,217.5 C 183.5,217.5 184.5,217.5 185.5,217.5C 187.195,220.813 186.195,222.813 182.5,223.5C 182.5,221.5 182.5,219.5 182.5,217.5 Z"/></g>
<g><path style="opacity:0.945" fill="#6e9367" d="M 81.5,215.5 C 87.979,214.509 94.6457,214.176 101.5,214.5C 101.5,221.5 101.5,228.5 101.5,235.5C 101.167,235.5 100.833,235.5 100.5,235.5C 100.5,233.833 100.5,232.167 100.5,230.5C 89.4654,230.184 89.1321,229.35 99.5,228C 100.38,226.644 100.714,225.144 100.5,223.5C 96.6707,224.069 93.3373,223.402 90.5,221.5C 93.5,220.833 96.5,220.167 99.5,219.5C 99.5,218.167 99.5,216.833 99.5,215.5C 93.5,215.5 87.5,215.5 81.5,215.5 Z"/></g>
<g><path style="opacity:0.275" fill="#d1e3ce" d="M 101.5,214.5 C 104.833,214.5 108.167,214.5 111.5,214.5C 111.5,215.833 111.5,217.167 111.5,218.5C 110.596,217.791 110.263,216.791 110.5,215.5C 107.881,215.232 105.381,215.565 103,216.5C 103.369,222.773 103.536,229.107 103.5,235.5C 102.833,235.5 102.167,235.5 101.5,235.5C 101.5,228.5 101.5,221.5 101.5,214.5 Z"/></g>
<g><path style="opacity:0.169" fill="#dfefdf" d="M 163.5,219.5 C 166.203,221.11 169.203,222.11 172.5,222.5C 170.08,222.292 167.747,222.626 165.5,223.5C 162.962,222.743 162.295,221.41 163.5,219.5 Z"/></g>
<g><path style="opacity:0.035" fill="#edf6df" d="M 197.5,218.5 C 198.931,219.78 199.598,221.447 199.5,223.5C 198.833,222.833 198.167,222.167 197.5,221.5C 197.5,220.5 197.5,219.5 197.5,218.5 Z"/></g>
<g><path style="opacity:0.361" fill="#becbbd" d="M 68.5,222.5 C 69.5,222.5 70.5,222.5 71.5,222.5C 71.3573,224.262 71.6906,225.929 72.5,227.5C 71.9234,229.55 70.5901,230.55 68.5,230.5C 68.5,227.833 68.5,225.167 68.5,222.5 Z"/></g>
<g><path style="opacity:0.471" fill="#d1e2cd" d="M 81.5,217.5 C 82.4896,223.31 82.8229,229.31 82.5,235.5C 88.1667,235.5 93.8333,235.5 99.5,235.5C 99.5,234.167 99.5,232.833 99.5,231.5C 96.2234,231.784 93.0567,231.451 90,230.5C 89.3828,229.551 89.5494,228.718 90.5,228C 93.7802,227.944 96.7802,227.111 99.5,225.5C 96.5459,224.853 93.5459,224.686 90.5,225C 89.2089,223.708 89.2089,222.542 90.5,221.5C 93.3373,223.402 96.6707,224.069 100.5,223.5C 100.714,225.144 100.38,226.644 99.5,228C 89.1321,229.35 89.4654,230.184 100.5,230.5C 100.5,232.167 100.5,233.833 100.5,235.5C 94.1667,236.833 87.8333,236.833 81.5,235.5C 81.5,229.5 81.5,223.5 81.5,217.5 Z"/></g>
<g><path style="opacity:0.525" fill="#9db99a" d="M 172.5,225.5 C 170.031,226.317 167.365,226.817 164.5,227C 167.365,227.183 170.031,227.683 172.5,228.5C 169.5,228.5 166.5,228.5 163.5,228.5C 162.226,227.811 162.226,226.977 163.5,226C 166.482,225.502 169.482,225.335 172.5,225.5 Z"/></g>
<g><path style="opacity:0.075" fill="#eaf9e9" d="M 163.5,228.5 C 166.5,228.5 169.5,228.5 172.5,228.5C 173.451,229.919 173.784,231.585 173.5,233.5C 170.5,233.5 167.5,233.5 164.5,233.5C 166.948,232.527 169.615,232.194 172.5,232.5C 172.5,231.5 172.5,230.5 172.5,229.5C 169.287,229.81 166.287,229.477 163.5,228.5 Z"/></g>
<g><path style="opacity:1" fill="#6a9362" d="M 60.5,215.5 C 65.3054,214.513 70.3054,214.179 75.5,214.5C 77.158,216.654 79.158,216.987 81.5,215.5C 81.5,215.833 81.5,216.167 81.5,216.5C 81.5,216.833 81.5,217.167 81.5,217.5C 81.5,223.5 81.5,229.5 81.5,235.5C 79.2016,233.599 76.8683,234.099 74.5,237C 69.9796,237.814 65.6463,237.647 61.5,236.5C 65.7016,236.817 69.7016,236.483 73.5,235.5C 78.3068,232.103 79.8068,227.436 78,221.5C 76.9054,220.307 76.072,218.973 75.5,217.5C 75.0825,216.778 74.4158,216.278 73.5,216C 69.1794,215.501 64.8461,215.334 60.5,215.5 Z"/></g>
<g><path style="opacity:0.102" fill="#dbe7d7" d="M 193.5,232.5 C 193.5,232.833 193.5,233.167 193.5,233.5C 191.143,233.663 188.81,233.497 186.5,233C 185.837,231.482 184.837,230.315 183.5,229.5C 183.369,228.761 183.536,228.094 184,227.5C 185.529,228.729 186.696,230.229 187.5,232C 189.473,232.495 191.473,232.662 193.5,232.5 Z"/></g>
<g><path style="opacity:0.714" fill="#b4cfae" d="M 111.5,227.5 C 114.167,227.5 116.833,227.5 119.5,227.5C 121.369,229.635 122.036,232.302 121.5,235.5C 116.833,235.5 112.167,235.5 107.5,235.5C 111.634,234.515 115.968,234.182 120.5,234.5C 121.095,229.48 119.095,227.814 114.5,229.5C 113.261,229.058 112.261,228.391 111.5,227.5 Z"/></g>
<g><path style="opacity:0.044" fill="#f2fff0" d="M 175.5,220.5 C 176.483,224.298 176.817,228.298 176.5,232.5C 178.833,232.5 181.167,232.5 183.5,232.5C 181.052,233.473 178.385,233.806 175.5,233.5C 175.5,229.167 175.5,224.833 175.5,220.5 Z"/></g>
<g><path style="opacity:0.525" fill="#bed7b9" d="M 199.5,223.5 C 201.265,226.123 201.932,229.123 201.5,232.5C 203.833,232.5 206.167,232.5 208.5,232.5C 208.19,229.287 208.523,226.287 209.5,223.5C 209.5,226.833 209.5,230.167 209.5,233.5C 206.167,233.5 202.833,233.5 199.5,233.5C 199.5,230.167 199.5,226.833 199.5,223.5 Z"/></g>
<g><path style="opacity:0.18" fill="#d6edd1" d="M 134.5,218.5 C 136.876,223.106 137.876,228.106 137.5,233.5C 141.5,233.5 145.5,233.5 149.5,233.5C 149.624,228.951 150.291,224.618 151.5,220.5C 151.46,225.193 151.127,229.859 150.5,234.5C 150.167,234.5 149.833,234.5 149.5,234.5C 145.167,234.5 140.833,234.5 136.5,234.5C 135.963,229.149 135.296,223.816 134.5,218.5 Z"/></g>
<g><path style="opacity:1" fill="#448139" d="M 75.5,214.5 C 70.3054,214.179 65.3054,214.513 60.5,215.5C 60.1755,222.687 60.5088,229.687 61.5,236.5C 65.6463,237.647 69.9796,237.814 74.5,237C 76.8683,234.099 79.2016,233.599 81.5,235.5C 87.8333,236.833 94.1667,236.833 100.5,235.5C 100.833,235.5 101.167,235.5 101.5,235.5C 102.167,235.5 102.833,235.5 103.5,235.5C 104.833,235.5 106.167,235.5 107.5,235.5C 112.167,235.5 116.833,235.5 121.5,235.5C 121.833,235.5 122.167,235.5 122.5,235.5C 122.833,235.5 123.167,235.5 123.5,235.5C 123.351,236.552 123.517,237.552 124,238.5C 127.466,237.798 130.966,237.131 134.5,236.5C 138.147,237.648 141.814,237.648 145.5,236.5C 145.5,237.5 145.5,238.5 145.5,239.5C 146.5,239.5 147.5,239.5 148.5,239.5C 148.366,237.708 148.699,236.042 149.5,234.5C 149.833,234.5 150.167,234.5 150.5,234.5C 151.5,234.5 152.5,234.5 153.5,234.5C 153.007,236.806 152.674,239.139 152.5,241.5C 153.552,241.351 154.552,241.517 155.5,242C 154.366,243.016 154.699,243.683 156.5,244C 141.987,244.244 127.487,244.744 113,245.5C 109.599,245.131 106.266,244.464 103,243.5C 99.8682,243.978 97.3682,245.311 95.5,247.5C 94.8333,247.5 94.5,247.833 94.5,248.5C 93.5,248.5 92.5,248.5 91.5,248.5C 89.9872,246.759 87.9872,245.759 85.5,245.5C 78.2041,246.431 70.8708,246.765 63.5,246.5C 63.5,245.5 63.5,244.5 63.5,243.5C 59.7531,245.416 55.7531,246.749 51.5,247.5C 49.1817,247.003 46.8484,246.67 44.5,246.5C 44.3359,243.813 44.5026,241.146 45,238.5C 45.3826,239.056 45.8826,239.389 46.5,239.5C 48.288,239.785 49.9547,239.452 51.5,238.5C 53.7626,230.844 55.5959,231.177 57,239.5C 58.0113,240.337 59.1779,240.67 60.5,240.5C 58.7946,232.24 57.9613,223.906 58,215.5C 58.5,215 59,214.5 59.5,214C 65.0164,213.183 70.3497,213.349 75.5,214.5 Z"/></g>
<g><path style="opacity:0.298" fill="#cce5c7" d="M 95.5,204.5 C 87.5,205.167 79.5,205.833 71.5,206.5C 61.5,206.5 51.5,206.5 41.5,206.5C 41.8636,220.832 42.1969,235.166 42.5,249.5C 57.822,248.763 73.1553,248.43 88.5,248.5C 88.5,248.833 88.5,249.167 88.5,249.5C 72.8288,249.661 57.1622,249.994 41.5,250.5C 41.0834,235.502 40.7501,220.502 40.5,205.5C 58.8284,204.945 77.1617,204.611 95.5,204.5 Z"/></g>
<g><path style="opacity:0.004" fill="#fefffe" d="M 28.5,241.5 C 29.8333,242.167 29.8333,242.167 28.5,241.5 Z"/></g>
<g><path style="opacity:1" fill="#438238" d="M 221.5,214.5 C 220.432,215.434 219.099,215.768 217.5,215.5C 216.955,220.609 215.788,225.609 214,230.5C 213.333,233.167 213.333,235.833 214,238.5C 214.853,240.125 215.853,240.458 217,239.5C 217.013,232.579 218.846,226.245 222.5,220.5C 225.167,221.833 225.167,223.167 222.5,224.5C 221.337,229.802 221.171,235.136 222,240.5C 224.466,239.223 226.966,239.223 229.5,240.5C 222.091,241.912 214.758,242.912 207.5,243.5C 204.833,243.5 202.167,243.5 199.5,243.5C 191.733,243.415 183.9,243.082 176,242.5C 171.391,244.51 166.558,245.01 161.5,244C 162.833,243.667 164.167,243.333 165.5,243C 163.715,241.837 161.715,241.17 159.5,241C 158.663,239.989 158.33,238.822 158.5,237.5C 162.462,236.624 166.462,235.958 170.5,235.5C 170.5,236.833 170.5,238.167 170.5,239.5C 173.025,238.36 175.692,237.693 178.5,237.5C 178.5,238.5 178.5,239.5 178.5,240.5C 180.103,240.688 181.437,240.188 182.5,239C 182.034,237.701 182.034,236.201 182.5,234.5C 184.167,234.5 185.833,234.5 187.5,234.5C 187.238,235.978 187.571,237.311 188.5,238.5C 188.833,237.833 189.167,237.167 189.5,236.5C 190.251,237.376 190.751,238.376 191,239.5C 191.839,236.401 193.839,234.401 197,233.5C 200.461,234.218 203.961,234.718 207.5,235C 208,235.5 208.5,236 209,236.5C 210.891,232.389 211.891,228.056 212,223.5C 213.831,219.838 215.664,216.171 217.5,212.5C 219.829,210.998 221.163,211.664 221.5,214.5 Z"/></g>
<g><path style="opacity:0.167" fill="#cfe3cb" d="M 232.5,200.5 C 233.283,202.343 233.95,204.343 234.5,206.5C 234.436,219.047 234.436,231.713 234.5,244.5C 229.167,244.5 223.833,244.5 218.5,244.5C 212.167,244.5 205.833,244.5 199.5,244.5C 199.5,244.167 199.5,243.833 199.5,243.5C 202.167,243.5 204.833,243.5 207.5,243.5C 216.167,243.5 224.833,243.5 233.5,243.5C 233.824,236.646 233.491,229.979 232.5,223.5C 232.5,215.833 232.5,208.167 232.5,200.5 Z"/></g>
<g><path style="opacity:0.051" fill="#d8ecd3" d="M 175.5,245.5 C 176.833,245.5 178.167,245.5 179.5,245.5C 153.014,247.147 126.347,248.313 99.5,249C 100.737,249.232 101.737,249.732 102.5,250.5C 99.6726,250.416 97.006,249.75 94.5,248.5C 94.5,247.833 94.8333,247.5 95.5,247.5C 122.161,246.663 148.827,245.996 175.5,245.5 Z"/></g>
<g><path style="opacity:0.063" fill="#e1f5df" d="M 199.5,244.5 C 205.833,244.5 212.167,244.5 218.5,244.5C 210.343,245.329 202.01,245.829 193.5,246C 191.713,247.319 189.713,248.152 187.5,248.5C 187.5,248.167 187.5,247.833 187.5,247.5C 191.058,245.032 195.058,244.032 199.5,244.5 Z"/></g>
<g><path style="opacity:0.094" fill="#cbdfc9" d="M 88.5,249.5 C 91.6305,248.908 93.9639,249.908 95.5,252.5C 92.9823,251.736 90.649,250.736 88.5,249.5 Z"/></g>
<g><path style="opacity:0.063" fill="#d8ecd5" d="M 95.5,252.5 C 103.068,254.083 110.402,256.083 117.5,258.5C 109.732,257.727 102.399,255.727 95.5,252.5 Z"/></g>
<g><path style="opacity:1" fill="#628d5a" d="M 175.5,245.5 C 178.976,244.357 182.642,244.19 186.5,245C 183.668,246.908 184.001,247.741 187.5,247.5C 187.5,247.833 187.5,248.167 187.5,248.5C 187.158,249.338 186.492,249.672 185.5,249.5C 174.365,253.781 163.031,257.114 151.5,259.5C 140.15,259.593 128.817,259.259 117.5,258.5C 110.402,256.083 103.068,254.083 95.5,252.5C 93.9639,249.908 91.6305,248.908 88.5,249.5C 88.5,249.167 88.5,248.833 88.5,248.5C 89.5,248.5 90.5,248.5 91.5,248.5C 92.5,248.5 93.5,248.5 94.5,248.5C 97.006,249.75 99.6726,250.416 102.5,250.5C 103.492,250.328 104.158,250.662 104.5,251.5C 109.601,254.693 115.268,256.193 121.5,256C 131.833,256.667 142.167,256.667 152.5,256C 156.133,255.851 159.466,255.018 162.5,253.5C 169.164,251.349 175.831,248.849 182.5,246C 181.552,245.517 180.552,245.351 179.5,245.5C 178.167,245.5 176.833,245.5 175.5,245.5 Z"/></g>
<g><path style="opacity:0.231" fill="#b8d3b3" d="M 104.5,251.5 C 123.677,255.938 143.01,256.604 162.5,253.5C 159.466,255.018 156.133,255.851 152.5,256C 142.167,256.667 131.833,256.667 121.5,256C 115.268,256.193 109.601,254.693 104.5,251.5 Z"/></g>
<g><path style="opacity:0.071" fill="#e0f1dd" d="M 185.5,249.5 C 174.997,255.297 163.664,258.63 151.5,259.5C 163.031,257.114 174.365,253.781 185.5,249.5 Z"/></g>
<g><path style="opacity:0.004" fill="#fefffe" d="M 205.5,256.5 C 206.833,257.167 206.833,257.167 205.5,256.5 Z"/></g>
<g><path style="opacity:0.082" fill="#def0db" d="M 117.5,258.5 C 128.817,259.259 140.15,259.593 151.5,259.5C 147.012,260.166 142.346,260.499 137.5,260.5C 130.596,260.692 123.93,260.025 117.5,258.5 Z"/></g>
<g><path style="opacity:0.004" fill="#fefffe" d="M 264.5,261.5 C 265.833,262.167 265.833,262.167 264.5,261.5 Z"/></g>
<g><path style="opacity:0.004" fill="#fefffe" d="M 23.5,266.5 C 24.8333,267.167 24.8333,267.167 23.5,266.5 Z"/></g>
<g><path style="opacity:0.004" fill="#fefffe" d="M 90.5,270.5 C 91.8333,271.167 91.8333,271.167 90.5,270.5 Z"/></g>
<g><path style="opacity:0.004" fill="#fefffe" d="M 13.5,277.5 C 14.8333,278.167 14.8333,278.167 13.5,277.5 Z"/></g>
<g><path style="opacity:0.004" fill="#fefffe" d="M 161.5,278.5 C 162.833,279.167 162.833,279.167 161.5,278.5 Z"/></g>
<g><path style="opacity:0.004" fill="#fefffe" d="M 190.5,280.5 C 191.833,281.167 191.833,281.167 190.5,280.5 Z"/></g>
<g><path style="opacity:0.004" fill="#fefffe" d="M 226.5,286.5 C 227.833,287.167 227.833,287.167 226.5,286.5 Z"/></g>
<g><path style="opacity:0.004" fill="#fefffe" d="M 113.5,287.5 C 114.833,288.167 114.833,288.167 113.5,287.5 Z"/></g>
<g><path style="opacity:0.004" fill="#fefffe" d="M 32.5,290.5 C 31.8333,289.167 31.8333,289.167 32.5,290.5 Z"/></g>
</svg>
