<?xml version="1.0" encoding="UTF-8"?>
<!DOCTYPE svg PUBLIC "-//W3C//DTD SVG 1.1//EN" "http://www.w3.org/Graphics/SVG/1.1/DTD/svg11.dtd">
<svg xmlns="http://www.w3.org/2000/svg" version="1.1" width="278px" height="291px" style="shape-rendering:geometricPrecision; text-rendering:geometricPrecision; image-rendering:optimizeQuality; fill-rule:evenodd; clip-rule:evenodd" xmlns:xlink="http://www.w3.org/1999/xlink">
<g><path style="opacity:1" fill="#fdfefd" d="M -0.5,-0.5 C 92.1667,-0.5 184.833,-0.5 277.5,-0.5C 277.5,96.5 277.5,193.5 277.5,290.5C 184.833,290.5 92.1667,290.5 -0.5,290.5C -0.5,193.5 -0.5,96.5 -0.5,-0.5 Z"/></g>
<g><path style="opacity:1" fill="#538c49" d="M 248.5,169.5 C 247.076,171.515 246.41,173.848 246.5,176.5C 244.915,184.11 243.915,184.61 243.5,178C 253.995,136.401 244.828,99.9008 216,68.5C 176.063,32.9379 131.896,26.7712 83.5,50C 47.7477,71.6531 29.081,103.486 27.5,145.5C 28.0663,158.61 29.2329,171.61 31,184.5C 15.9576,136.657 26.4576,95.4903 62.5,61C 99.1238,31.35 139.457,25.35 183.5,43C 218.791,59.7157 240.624,87.2157 249,125.5C 251.07,140.2 250.903,154.867 248.5,169.5 Z"/></g>
<g><path style="opacity:1" fill="#6cb549" d="M 152.5,69.5 C 152.519,77.6417 148.519,80.8084 140.5,79C 138.536,77.549 137.203,75.7157 136.5,73.5C 136.577,72.2502 137.244,71.4169 138.5,71C 143.118,70.006 147.785,69.506 152.5,69.5 Z"/></g>
<g><path style="opacity:1" fill="#4f8b43" d="M 152.5,69.5 C 147.785,69.506 143.118,70.006 138.5,71C 137.244,71.4169 136.577,72.2502 136.5,73.5C 134.524,68.5573 136.191,65.0573 141.5,63C 145.538,62.1873 148.872,63.354 151.5,66.5C 153.423,67.3078 155.423,67.8078 157.5,68C 155.618,68.1981 153.952,68.6981 152.5,69.5 Z"/></g>
<g><path style="opacity:1" fill="#69b544" d="M 119.5,87.5 C 119.5,97.1667 119.5,106.833 119.5,116.5C 109.5,116.5 99.5,116.5 89.5,116.5C 89.5,106.833 89.5,97.1667 89.5,87.5C 99.5,87.5 109.5,87.5 119.5,87.5 Z"/></g>
<g><path style="opacity:1" fill="#f3f6f4" d="M 161.5,97.5 C 161.5,98.1667 161.5,98.8333 161.5,99.5C 161.5,101.5 161.5,103.5 161.5,105.5C 162.5,105.5 163.5,105.5 164.5,105.5C 165.683,110.573 167.183,115.573 169,120.5C 168.04,138.76 158.54,145.594 140.5,141C 136.139,136.307 135.472,131.14 138.5,125.5C 128.594,123.904 118.927,124.238 109.5,126.5C 108.448,124.744 106.781,124.077 104.5,124.5C 104.5,122.167 104.5,119.833 104.5,117.5C 99.3054,117.821 94.3054,117.487 89.5,116.5C 99.5,116.5 109.5,116.5 119.5,116.5C 119.5,106.833 119.5,97.1667 119.5,87.5C 120.494,96.9856 120.827,106.652 120.5,116.5C 123.385,116.806 126.052,116.473 128.5,115.5C 134.419,116.291 140.419,116.791 146.5,117C 147.667,118.167 148.833,119.333 150,120.5C 150.629,124.871 150.463,129.204 149.5,133.5C 152.167,133.5 154.833,133.5 157.5,133.5C 159.089,127.58 159.923,121.58 160,115.5C 155.35,112.374 150.183,110.54 144.5,110C 142.697,109.363 141.364,108.197 140.5,106.5C 139.311,105.571 137.978,105.238 136.5,105.5C 133.713,104.523 130.713,104.19 127.5,104.5C 128.042,95.9212 131.376,88.7546 137.5,83C 141.898,81.6215 145.398,82.7882 148,86.5C 149.706,90.0788 151.539,93.5788 153.5,97C 156.119,98.6963 158.786,98.863 161.5,97.5 Z"/></g>
<g><path style="opacity:1" fill="#4a863f" d="M 180.5,126.5 C 174.461,133.205 168.794,140.205 163.5,147.5C 153.249,148.475 142.915,148.808 132.5,148.5C 132.81,145.287 132.477,142.287 131.5,139.5C 131.135,135.263 129.135,132.096 125.5,130C 119.681,128.544 114.015,128.044 108.5,128.5C 108.833,127.833 109.167,127.167 109.5,126.5C 118.927,124.238 128.594,123.904 138.5,125.5C 135.472,131.14 136.139,136.307 140.5,141C 158.54,145.594 168.04,138.76 169,120.5C 167.183,115.573 165.683,110.573 164.5,105.5C 167.244,104.928 168.077,103.262 167,100.5C 165.301,99.5939 163.467,99.2606 161.5,99.5C 161.5,98.8333 161.5,98.1667 161.5,97.5C 166.448,94.8315 171.781,93.8315 177.5,94.5C 177.5,98.8333 177.5,103.167 177.5,107.5C 175.326,107.08 173.326,107.08 171.5,107.5C 174.706,113.812 177.706,120.146 180.5,126.5 Z"/></g>
<g><path style="opacity:1" fill="#68b345" d="M 161.5,99.5 C 163.467,99.2606 165.301,99.5939 167,100.5C 168.077,103.262 167.244,104.928 164.5,105.5C 163.5,105.5 162.5,105.5 161.5,105.5C 161.5,103.5 161.5,101.5 161.5,99.5 Z"/></g>
<g><path style="opacity:1" fill="#a5d28e" d="M 60.5,102.5 C 68.5277,102.169 76.5277,102.502 84.5,103.5C 80.5,103.833 76.5,104.167 72.5,104.5C 68.107,104.491 64.107,103.824 60.5,102.5 Z"/></g>
<g><path style="opacity:1" fill="#48853d" d="M 136.5,105.5 C 137.978,105.238 139.311,105.571 140.5,106.5C 141.364,108.197 142.697,109.363 144.5,110C 150.183,110.54 155.35,112.374 160,115.5C 159.923,121.58 159.089,127.58 157.5,133.5C 154.833,133.5 152.167,133.5 149.5,133.5C 150.463,129.204 150.629,124.871 150,120.5C 148.833,119.333 147.667,118.167 146.5,117C 140.419,116.791 134.419,116.291 128.5,115.5C 127.962,113.883 127.629,112.216 127.5,110.5C 127.5,108.833 127.5,107.167 127.5,105.5C 130.5,105.5 133.5,105.5 136.5,105.5 Z"/></g>
<g><path style="opacity:1" fill="#a1c09d" d="M 127.5,104.5 C 130.713,104.19 133.713,104.523 136.5,105.5C 133.5,105.5 130.5,105.5 127.5,105.5C 127.5,107.167 127.5,108.833 127.5,110.5C 126.167,108.5 126.167,106.5 127.5,104.5 Z"/></g>
<g><path style="opacity:1" fill="#bcdeaa" d="M 50.5,109.5 C 62.5185,109.168 74.5185,109.501 86.5,110.5C 80.5,110.833 74.5,111.167 68.5,111.5C 62.1275,111.496 56.1275,110.829 50.5,109.5 Z"/></g>
<g><path style="opacity:1" fill="#aed79a" d="M 75.5,125.5 C 83.8599,125.169 92.1932,125.502 100.5,126.5C 96.3333,126.833 92.1667,127.167 88,127.5C 83.4428,127.491 79.2762,126.825 75.5,125.5 Z"/></g>
<g><path style="opacity:1" fill="#ecf1f0" d="M 180.5,126.5 C 185.191,127.755 189.858,129.589 194.5,132C 195.167,132.667 195.833,133.333 196.5,134C 194.574,134.422 193.574,135.589 193.5,137.5C 189.835,137.502 186.835,138.835 184.5,141.5C 182.053,141.615 180.053,142.615 178.5,144.5C 175.797,146.181 173.131,147.847 170.5,149.5C 167.586,150.905 165.753,149.905 165,146.5C 164.617,147.056 164.117,147.389 163.5,147.5C 168.794,140.205 174.461,133.205 180.5,126.5 Z"/></g>
<g><path style="opacity:1" fill="#e6efe8" d="M 108.5,128.5 C 114.015,128.044 119.681,128.544 125.5,130C 129.135,132.096 131.135,135.263 131.5,139.5C 131.5,142.167 131.5,144.833 131.5,147.5C 119.988,147.172 108.654,147.505 97.5,148.5C 96.5,148.5 95.5,148.5 94.5,148.5C 94.5,147.167 94.5,145.833 94.5,144.5C 96.604,144.799 98.604,144.466 100.5,143.5C 98.9547,142.548 97.288,142.215 95.5,142.5C 90.6042,140.554 85.2709,139.887 79.5,140.5C 79.5,139.5 79.5,138.5 79.5,137.5C 85.8682,137.83 92.2015,137.496 98.5,136.5C 101.588,133.399 104.922,130.733 108.5,128.5 Z"/></g>
<g><path style="opacity:1" fill="#8bc56f" d="M 55.5,131.5 C 67.8513,131.168 80.1847,131.501 92.5,132.5C 86.3333,132.833 80.1667,133.167 74,133.5C 67.462,133.496 61.2953,132.83 55.5,131.5 Z"/></g>
<g><path style="opacity:1" fill="#49863d" d="M 193.5,137.5 C 198.814,144.6 198.814,151.766 193.5,159C 181.937,165.218 174.271,162.051 170.5,149.5C 173.131,147.847 175.797,146.181 178.5,144.5C 176.534,151.688 179.2,155.188 186.5,155C 191.038,153.287 192.538,150.12 191,145.5C 189.362,143.266 187.195,141.933 184.5,141.5C 186.835,138.835 189.835,137.502 193.5,137.5 Z"/></g>
<g><path style="opacity:1" fill="#68b244" d="M 184.5,141.5 C 187.195,141.933 189.362,143.266 191,145.5C 192.538,150.12 191.038,153.287 186.5,155C 179.2,155.188 176.534,151.688 178.5,144.5C 180.053,142.615 182.053,141.615 184.5,141.5 Z"/></g>
<g><path style="opacity:1" fill="#8bc66e" d="M 95.5,142.5 C 97.288,142.215 98.9547,142.548 100.5,143.5C 98.604,144.466 96.604,144.799 94.5,144.5C 86.1401,144.831 77.8068,144.498 69.5,143.5C 78.1411,142.502 86.8078,142.169 95.5,142.5 Z"/></g>
<g><path style="opacity:1" fill="#ccddcc" d="M 131.5,139.5 C 132.477,142.287 132.81,145.287 132.5,148.5C 130.833,148.5 129.167,148.5 127.5,148.5C 125.167,148.5 122.833,148.5 120.5,148.5C 115.833,148.5 111.167,148.5 106.5,148.5C 104.167,148.5 101.833,148.5 99.5,148.5C 98.8333,148.5 98.1667,148.5 97.5,148.5C 108.654,147.505 119.988,147.172 131.5,147.5C 131.5,144.833 131.5,142.167 131.5,139.5 Z"/></g>
<g><path style="opacity:1" fill="#49863e" d="M 99.5,148.5 C 101.833,148.5 104.167,148.5 106.5,148.5C 107.87,155.051 111.537,156.884 117.5,154C 119.607,152.736 120.607,150.903 120.5,148.5C 122.833,148.5 125.167,148.5 127.5,148.5C 126.472,157.027 121.638,161.694 113,162.5C 104.941,161.274 100.441,156.607 99.5,148.5 Z"/></g>
<g><path style="opacity:1" fill="#69b346" d="M 106.5,148.5 C 111.167,148.5 115.833,148.5 120.5,148.5C 120.607,150.903 119.607,152.736 117.5,154C 111.537,156.884 107.87,155.051 106.5,148.5 Z"/></g>
<g><path style="opacity:1" fill="#4b8740" d="M 137.5,171.5 C 142.844,171.334 148.177,171.501 153.5,172C 157.152,176.294 157.485,180.961 154.5,186C 155.609,188.047 156.276,190.213 156.5,192.5C 153.833,192.5 151.167,192.5 148.5,192.5C 147.386,187.371 146.719,187.371 146.5,192.5C 143.5,192.5 140.5,192.5 137.5,192.5C 137.5,185.5 137.5,178.5 137.5,171.5 Z"/></g>
<g><path style="opacity:1" fill="#47853d" d="M 158.5,171.5 C 161.5,171.5 164.5,171.5 167.5,171.5C 168.782,179.373 169.449,179.373 169.5,171.5C 172.5,171.5 175.5,171.5 178.5,171.5C 178.5,178.5 178.5,185.5 178.5,192.5C 176.167,192.5 173.833,192.5 171.5,192.5C 171.167,185.833 170.833,185.833 170.5,192.5C 169.167,192.5 167.833,192.5 166.5,192.5C 166.167,184.5 165.833,184.5 165.5,192.5C 163.167,192.5 160.833,192.5 158.5,192.5C 158.5,185.5 158.5,178.5 158.5,171.5 Z"/></g>
<g><path style="opacity:1" fill="#4b8741" d="M 74.5,171.5 C 79.5111,171.334 84.5111,171.501 89.5,172C 92.3661,173.393 93.6994,175.726 93.5,179C 93.4834,185.528 90.1501,188.694 83.5,188.5C 83.5,189.833 83.5,191.167 83.5,192.5C 80.5,192.5 77.5,192.5 74.5,192.5C 74.5,185.5 74.5,178.5 74.5,171.5 Z"/></g>
<g><path style="opacity:1" fill="#4b8740" d="M 95.5,171.5 C 98.1667,171.5 100.833,171.5 103.5,171.5C 104.63,180.635 105.297,180.635 105.5,171.5C 108.5,171.5 111.5,171.5 114.5,171.5C 114.5,178.5 114.5,185.5 114.5,192.5C 111.5,192.5 108.5,192.5 105.5,192.5C 104.833,184.5 104.167,184.5 103.5,192.5C 100.833,192.5 98.1667,192.5 95.5,192.5C 95.5,185.5 95.5,178.5 95.5,171.5 Z"/></g>
<g><path style="opacity:1" fill="#4a863f" d="M 119.5,171.5 C 123.833,171.5 128.167,171.5 132.5,171.5C 133.284,178.523 134.284,185.523 135.5,192.5C 132.5,192.5 129.5,192.5 126.5,192.5C 125.833,185.833 125.167,185.833 124.5,192.5C 121.833,192.5 119.167,192.5 116.5,192.5C 117.091,185.434 118.091,178.434 119.5,171.5 Z"/></g>
<g><path style="opacity:1" fill="#4b8740" d="M 184.5,171.5 C 188.833,171.5 193.167,171.5 197.5,171.5C 197.724,178.287 198.724,184.954 200.5,191.5C 196.893,192.489 193.226,192.823 189.5,192.5C 189.741,189.103 190.407,185.769 191.5,182.5C 191.167,181.167 190.833,179.833 190.5,178.5C 188.551,182.962 187.551,187.629 187.5,192.5C 185.167,192.5 182.833,192.5 180.5,192.5C 181.325,185.375 182.659,178.375 184.5,171.5 Z"/></g>
<g><path style="opacity:1" fill="#b7cfb3" d="M 248.5,169.5 C 248.59,172.152 247.924,174.485 246.5,176.5C 246.41,173.848 247.076,171.515 248.5,169.5 Z"/></g>
<g><path style="opacity:1" fill="#d1e0ce" d="M 145.5,176.5 C 146.649,176.791 147.316,177.624 147.5,179C 147.167,179.833 146.833,180.667 146.5,181.5C 145.548,179.955 145.215,178.288 145.5,176.5 Z"/></g>
<g><path style="opacity:1" fill="#e8f0e6" d="M 83.5,176.5 C 84.6935,176.97 85.3601,177.97 85.5,179.5C 85.1667,180.5 84.8333,181.5 84.5,182.5C 83.5344,180.604 83.2011,178.604 83.5,176.5 Z"/></g>
<g><path style="opacity:1" fill="#adc8a8" d="M 124.5,178.5 C 125.586,178.62 126.253,179.287 126.5,180.5C 126.167,181.167 125.833,181.833 125.5,182.5C 124.571,181.311 124.238,179.978 124.5,178.5 Z"/></g>
<g><path style="opacity:1" fill="#46843c" d="M 183.5,249.5 C 182.167,248.5 182.167,247.5 183.5,246.5C 183.833,246.5 184.167,246.5 184.5,246.5C 185.289,246.217 185.956,245.717 186.5,245C 182.642,244.19 178.976,244.357 175.5,245.5C 148.499,246.213 121.499,247.047 94.5,248C 95.745,248.791 97.0783,249.291 98.5,249.5C 98.1788,251.048 97.1788,251.715 95.5,251.5C 93.4068,250.955 91.4068,250.122 89.5,249C 73.8257,248.45 58.1591,248.616 42.5,249.5C 42.3531,235.161 42.0198,220.828 41.5,206.5C 105.171,204.618 168.838,202.618 232.5,200.5C 232.972,214.829 233.305,229.163 233.5,243.5C 220.125,243.143 206.792,243.643 193.5,245C 190.035,246.322 186.702,247.822 183.5,249.5 Z"/></g>
<g><path style="opacity:1" fill="#689a5e" d="M 144.5,213.5 C 147.625,212.521 150.958,212.187 154.5,212.5C 154.5,219.5 154.5,226.5 154.5,233.5C 153.674,229.018 153.174,224.351 153,219.5C 152.268,224.661 151.434,229.661 150.5,234.5C 150.446,227.424 151.113,220.424 152.5,213.5C 149.833,213.5 147.167,213.5 144.5,213.5 Z"/></g>
<g><path style="opacity:1" fill="#f7f9f6" d="M 209.5,232.5 C 206.5,232.5 203.5,232.5 200.5,232.5C 200.802,229.941 200.468,227.607 199.5,225.5C 197.854,220.916 196.521,216.249 195.5,211.5C 198.167,211.5 200.833,211.5 203.5,211.5C 203.585,219.348 204.251,219.348 205.5,211.5C 208.167,211.5 210.833,211.5 213.5,211.5C 213.152,215.741 211.985,219.741 210,223.5C 209.502,226.482 209.335,229.482 209.5,232.5 Z"/></g>
<g><path style="opacity:1" fill="#b2ccad" d="M 122.5,214.5 C 125.625,213.521 128.958,213.187 132.5,213.5C 132.5,219.167 132.5,224.833 132.5,230.5C 131.512,225.36 131.179,220.026 131.5,214.5C 128.5,214.5 125.5,214.5 122.5,214.5 Z"/></g>
<g><path style="opacity:1" fill="#f9fbf8" d="M 172.5,213.5 C 172.5,215.5 172.5,217.5 172.5,219.5C 169.428,219.183 166.428,219.516 163.5,220.5C 166.768,221.487 170.102,221.82 173.5,221.5C 173.5,222.833 173.5,224.167 173.5,225.5C 170.482,225.335 167.482,225.502 164.5,226C 164.043,226.414 163.709,226.914 163.5,227.5C 166.768,228.487 170.102,228.82 173.5,228.5C 173.5,230.167 173.5,231.833 173.5,233.5C 167.5,233.5 161.5,233.5 155.5,233.5C 155.5,226.833 155.5,220.167 155.5,213.5C 161.167,213.5 166.833,213.5 172.5,213.5 Z"/></g>
<g><path style="opacity:1" fill="#f6f9f6" d="M 190.5,212.5 C 191.79,213.058 192.623,214.058 193,215.5C 193.681,219.202 193.515,222.869 192.5,226.5C 193.467,228.762 194.134,231.095 194.5,233.5C 191.813,233.664 189.146,233.497 186.5,233C 184.285,226.942 183.285,227.109 183.5,233.5C 180.833,233.5 178.167,233.5 175.5,233.5C 175.5,226.5 175.5,219.5 175.5,212.5C 180.5,212.5 185.5,212.5 190.5,212.5 Z"/></g>
<g><path style="opacity:1" fill="#fdfefd" d="M 122.5,214.5 C 125.5,214.5 128.5,214.5 131.5,214.5C 131.179,220.026 131.512,225.36 132.5,230.5C 132.5,231.833 132.5,233.167 132.5,234.5C 129.5,234.5 126.5,234.5 123.5,234.5C 123.817,230.298 123.483,226.298 122.5,222.5C 122.5,219.833 122.5,217.167 122.5,214.5 Z"/></g>
<g><path style="opacity:1" fill="#f9fbf8" d="M 144.5,213.5 C 147.167,213.5 149.833,213.5 152.5,213.5C 151.113,220.424 150.446,227.424 150.5,234.5C 145.833,234.5 141.167,234.5 136.5,234.5C 136.149,227.73 135.149,221.064 133.5,214.5C 136.428,213.516 139.428,213.183 142.5,213.5C 142.525,224.069 143.191,224.069 144.5,213.5 Z"/></g>
<g><path style="opacity:1" fill="#f8faf7" d="M 99.5,223.5 C 99.5,224.833 99.5,226.167 99.5,227.5C 96.2869,227.19 93.2869,227.523 90.5,228.5C 93.3373,230.402 96.6707,231.069 100.5,230.5C 100.5,232.5 100.5,234.5 100.5,236.5C 94.1667,236.5 87.8333,236.5 81.5,236.5C 81.5,229.5 81.5,222.5 81.5,215.5C 87.5,215.5 93.5,215.5 99.5,215.5C 99.5,217.5 99.5,219.5 99.5,221.5C 87.5,222.167 87.5,222.833 99.5,223.5 Z"/></g>
<g><path style="opacity:1" fill="#fbfcfb" d="M 111.5,216.5 C 111.5,220.167 111.5,223.833 111.5,227.5C 114.5,227.5 117.5,227.5 120.5,227.5C 120.5,230.167 120.5,232.833 120.5,235.5C 114.5,235.5 108.5,235.5 102.5,235.5C 102.5,228.833 102.5,222.167 102.5,215.5C 105.609,215.264 108.609,215.597 111.5,216.5 Z"/></g>
<g><path style="opacity:1" fill="#f2f6f1" d="M 60.5,215.5 C 76.3671,212.854 82.0337,219.021 77.5,234C 72.1004,236.278 66.4337,237.111 60.5,236.5C 60.5,229.5 60.5,222.5 60.5,215.5 Z"/></g>
<g><path style="opacity:1" fill="#c9dbc6" d="M 154.5,212.5 C 160.69,212.177 166.69,212.51 172.5,213.5C 166.833,213.5 161.167,213.5 155.5,213.5C 155.5,220.167 155.5,226.833 155.5,233.5C 161.5,233.5 167.5,233.5 173.5,233.5C 167.167,234.833 160.833,234.833 154.5,233.5C 154.5,226.5 154.5,219.5 154.5,212.5 Z"/></g>
<g><path style="opacity:1" fill="#c8dac4" d="M 111.5,216.5 C 108.609,215.597 105.609,215.264 102.5,215.5C 102.5,222.167 102.5,228.833 102.5,235.5C 101.509,228.687 101.175,221.687 101.5,214.5C 105.329,213.931 108.663,214.598 111.5,216.5 Z"/></g>
<g><path style="opacity:1" fill="#a7c5a2" d="M 99.5,223.5 C 100.451,224.919 100.784,226.585 100.5,228.5C 97.1667,228.5 93.8333,228.5 90.5,228.5C 93.2869,227.523 96.2869,227.19 99.5,227.5C 99.5,226.167 99.5,224.833 99.5,223.5 Z"/></g>
<g><path style="opacity:1" fill="#b9d0b4" d="M 122.5,222.5 C 123.483,226.298 123.817,230.298 123.5,234.5C 126.5,234.5 129.5,234.5 132.5,234.5C 129.375,235.479 126.042,235.813 122.5,235.5C 122.5,231.167 122.5,226.833 122.5,222.5 Z"/></g>
<g><path style="opacity:1" fill="#73a16a" d="M 190.5,212.5 C 185.5,212.5 180.5,212.5 175.5,212.5C 175.5,219.5 175.5,226.5 175.5,233.5C 174.508,226.352 174.175,219.019 174.5,211.5C 180.026,211.179 185.36,211.512 190.5,212.5 Z"/></g>
<g><path style="opacity:1" fill="#a4c29e" d="M 199.5,225.5 C 200.468,227.607 200.802,229.941 200.5,232.5C 203.5,232.5 206.5,232.5 209.5,232.5C 206.375,233.479 203.042,233.813 199.5,233.5C 199.5,230.833 199.5,228.167 199.5,225.5 Z"/></g>
<g><path style="opacity:1" fill="#97ba91" d="M 175.5,245.5 C 178.976,244.357 182.642,244.19 186.5,245C 185.956,245.717 185.289,246.217 184.5,246.5C 181.713,245.523 178.713,245.19 175.5,245.5 Z"/></g>
<g><path style="opacity:1" fill="#f8faf7" d="M 175.5,245.5 C 178.713,245.19 181.713,245.523 184.5,246.5C 184.167,246.5 183.833,246.5 183.5,246.5C 155.563,258.485 127.23,259.485 98.5,249.5C 97.0783,249.291 95.745,248.791 94.5,248C 121.499,247.047 148.499,246.213 175.5,245.5 Z"/></g>
<g><path style="opacity:1" fill="#548c49" d="M 183.5,246.5 C 182.167,247.5 182.167,248.5 183.5,249.5C 163.76,258.178 143.093,261.345 121.5,259C 112.387,257.66 103.721,255.16 95.5,251.5C 97.1788,251.715 98.1788,251.048 98.5,249.5C 127.23,259.485 155.563,258.485 183.5,246.5 Z"/></g>
</svg>
